solid warehouse_rollup_shutter
  facet normal -1.000000e+00 0.000000e+00 0.000000e+00
    outer loop
      vertex -1.280000e+03 0.000000e+00 -4.000000e+01
      vertex -1.280000e+03 0.000000e+00 4.000000e+01
      vertex -1.280000e+03 2.720000e+03 4.000000e+01
    endloop
  endfacet
  facet normal -1.000000e+00 0.000000e+00 0.000000e+00
    outer loop
      vertex -1.280000e+03 0.000000e+00 -4.000000e+01
      vertex -1.280000e+03 2.720000e+03 4.000000e+01
      vertex -1.280000e+03 2.720000e+03 -4.000000e+01
    endloop
  endfacet
  facet normal 1.000000e+00 0.000000e+00 0.000000e+00
    outer loop
      vertex -1.200000e+03 0.000000e+00 -4.000000e+01
      vertex -1.200000e+03 2.720000e+03 -4.000000e+01
      vertex -1.200000e+03 2.720000e+03 4.000000e+01
    endloop
  endfacet
  facet normal 1.000000e+00 0.000000e+00 0.000000e+00
    outer loop
      vertex -1.200000e+03 0.000000e+00 -4.000000e+01
      vertex -1.200000e+03 2.720000e+03 4.000000e+01
      vertex -1.200000e+03 0.000000e+00 4.000000e+01
    endloop
  endfacet
  facet normal 0.000000e+00 -1.000000e+00 0.000000e+00
    outer loop
      vertex -1.280000e+03 0.000000e+00 -4.000000e+01
      vertex -1.200000e+03 0.000000e+00 -4.000000e+01
      vertex -1.200000e+03 0.000000e+00 4.000000e+01
    endloop
  endfacet
  facet normal 0.000000e+00 -1.000000e+00 0.000000e+00
    outer loop
      vertex -1.280000e+03 0.000000e+00 -4.000000e+01
      vertex -1.200000e+03 0.000000e+00 4.000000e+01
      vertex -1.280000e+03 0.000000e+00 4.000000e+01
    endloop
  endfacet
  facet normal 0.000000e+00 1.000000e+00 0.000000e+00
    outer loop
      vertex -1.280000e+03 2.720000e+03 -4.000000e+01
      vertex -1.280000e+03 2.720000e+03 4.000000e+01
      vertex -1.200000e+03 2.720000e+03 4.000000e+01
    endloop
  endfacet
  facet normal 0.000000e+00 1.000000e+00 0.000000e+00
    outer loop
      vertex -1.280000e+03 2.720000e+03 -4.000000e+01
      vertex -1.200000e+03 2.720000e+03 4.000000e+01
      vertex -1.200000e+03 2.720000e+03 -4.000000e+01
    endloop
  endfacet
  facet normal 0.000000e+00 0.000000e+00 -1.000000e+00
    outer loop
      vertex -1.280000e+03 0.000000e+00 -4.000000e+01
      vertex -1.280000e+03 2.720000e+03 -4.000000e+01
      vertex -1.200000e+03 2.720000e+03 -4.000000e+01
    endloop
  endfacet
  facet normal 0.000000e+00 0.000000e+00 -1.000000e+00
    outer loop
      vertex -1.280000e+03 0.000000e+00 -4.000000e+01
      vertex -1.200000e+03 2.720000e+03 -4.000000e+01
      vertex -1.200000e+03 0.000000e+00 -4.000000e+01
    endloop
  endfacet
  facet normal 0.000000e+00 0.000000e+00 1.000000e+00
    outer loop
      vertex -1.280000e+03 0.000000e+00 4.000000e+01
      vertex -1.200000e+03 0.000000e+00 4.000000e+01
      vertex -1.200000e+03 2.720000e+03 4.000000e+01
    endloop
  endfacet
  facet normal 0.000000e+00 0.000000e+00 1.000000e+00
    outer loop
      vertex -1.280000e+03 0.000000e+00 4.000000e+01
      vertex -1.200000e+03 2.720000e+03 4.000000e+01
      vertex -1.280000e+03 2.720000e+03 4.000000e+01
    endloop
  endfacet
  facet normal -1.000000e+00 0.000000e+00 0.000000e+00
    outer loop
      vertex 1.200000e+03 0.000000e+00 -4.000000e+01
      vertex 1.200000e+03 0.000000e+00 4.000000e+01
      vertex 1.200000e+03 2.720000e+03 4.000000e+01
    endloop
  endfacet
  facet normal -1.000000e+00 0.000000e+00 0.000000e+00
    outer loop
      vertex 1.200000e+03 0.000000e+00 -4.000000e+01
      vertex 1.200000e+03 2.720000e+03 4.000000e+01
      vertex 1.200000e+03 2.720000e+03 -4.000000e+01
    endloop
  endfacet
  facet normal 1.000000e+00 0.000000e+00 0.000000e+00
    outer loop
      vertex 1.280000e+03 0.000000e+00 -4.000000e+01
      vertex 1.280000e+03 2.720000e+03 -4.000000e+01
      vertex 1.280000e+03 2.720000e+03 4.000000e+01
    endloop
  endfacet
  facet normal 1.000000e+00 0.000000e+00 0.000000e+00
    outer loop
      vertex 1.280000e+03 0.000000e+00 -4.000000e+01
      vertex 1.280000e+03 2.720000e+03 4.000000e+01
      vertex 1.280000e+03 0.000000e+00 4.000000e+01
    endloop
  endfacet
  facet normal 0.000000e+00 -1.000000e+00 0.000000e+00
    outer loop
      vertex 1.200000e+03 0.000000e+00 -4.000000e+01
      vertex 1.280000e+03 0.000000e+00 -4.000000e+01
      vertex 1.280000e+03 0.000000e+00 4.000000e+01
    endloop
  endfacet
  facet normal 0.000000e+00 -1.000000e+00 0.000000e+00
    outer loop
      vertex 1.200000e+03 0.000000e+00 -4.000000e+01
      vertex 1.280000e+03 0.000000e+00 4.000000e+01
      vertex 1.200000e+03 0.000000e+00 4.000000e+01
    endloop
  endfacet
  facet normal 0.000000e+00 1.000000e+00 0.000000e+00
    outer loop
      vertex 1.200000e+03 2.720000e+03 -4.000000e+01
      vertex 1.200000e+03 2.720000e+03 4.000000e+01
      vertex 1.280000e+03 2.720000e+03 4.000000e+01
    endloop
  endfacet
  facet normal 0.000000e+00 1.000000e+00 0.000000e+00
    outer loop
      vertex 1.200000e+03 2.720000e+03 -4.000000e+01
      vertex 1.280000e+03 2.720000e+03 4.000000e+01
      vertex 1.280000e+03 2.720000e+03 -4.000000e+01
    endloop
  endfacet
  facet normal 0.000000e+00 0.000000e+00 -1.000000e+00
    outer loop
      vertex 1.200000e+03 0.000000e+00 -4.000000e+01
      vertex 1.200000e+03 2.720000e+03 -4.000000e+01
      vertex 1.280000e+03 2.720000e+03 -4.000000e+01
    endloop
  endfacet
  facet normal 0.000000e+00 0.000000e+00 -1.000000e+00
    outer loop
      vertex 1.200000e+03 0.000000e+00 -4.000000e+01
      vertex 1.280000e+03 2.720000e+03 -4.000000e+01
      vertex 1.280000e+03 0.000000e+00 -4.000000e+01
    endloop
  endfacet
  facet normal 0.000000e+00 0.000000e+00 1.000000e+00
    outer loop
      vertex 1.200000e+03 0.000000e+00 4.000000e+01
      vertex 1.280000e+03 0.000000e+00 4.000000e+01
      vertex 1.280000e+03 2.720000e+03 4.000000e+01
    endloop
  endfacet
  facet normal 0.000000e+00 0.000000e+00 1.000000e+00
    outer loop
      vertex 1.200000e+03 0.000000e+00 4.000000e+01
      vertex 1.280000e+03 2.720000e+03 4.000000e+01
      vertex 1.200000e+03 2.720000e+03 4.000000e+01
    endloop
  endfacet
  facet normal -1.000000e+00 0.000000e+00 0.000000e+00
    outer loop
      vertex -1.280000e+03 2.400000e+03 -4.000000e+01
      vertex -1.280000e+03 2.400000e+03 4.000000e+01
      vertex -1.280000e+03 2.620000e+03 4.000000e+01
    endloop
  endfacet
  facet normal -1.000000e+00 0.000000e+00 0.000000e+00
    outer loop
      vertex -1.280000e+03 2.400000e+03 -4.000000e+01
      vertex -1.280000e+03 2.620000e+03 4.000000e+01
      vertex -1.280000e+03 2.620000e+03 -4.000000e+01
    endloop
  endfacet
  facet normal 1.000000e+00 0.000000e+00 0.000000e+00
    outer loop
      vertex 1.280000e+03 2.400000e+03 -4.000000e+01
      vertex 1.280000e+03 2.620000e+03 -4.000000e+01
      vertex 1.280000e+03 2.620000e+03 4.000000e+01
    endloop
  endfacet
  facet normal 1.000000e+00 0.000000e+00 0.000000e+00
    outer loop
      vertex 1.280000e+03 2.400000e+03 -4.000000e+01
      vertex 1.280000e+03 2.620000e+03 4.000000e+01
      vertex 1.280000e+03 2.400000e+03 4.000000e+01
    endloop
  endfacet
  facet normal 0.000000e+00 -1.000000e+00 0.000000e+00
    outer loop
      vertex -1.280000e+03 2.400000e+03 -4.000000e+01
      vertex 1.280000e+03 2.400000e+03 -4.000000e+01
      vertex 1.280000e+03 2.400000e+03 4.000000e+01
    endloop
  endfacet
  facet normal 0.000000e+00 -1.000000e+00 0.000000e+00
    outer loop
      vertex -1.280000e+03 2.400000e+03 -4.000000e+01
      vertex 1.280000e+03 2.400000e+03 4.000000e+01
      vertex -1.280000e+03 2.400000e+03 4.000000e+01
    endloop
  endfacet
  facet normal 0.000000e+00 1.000000e+00 0.000000e+00
    outer loop
      vertex -1.280000e+03 2.620000e+03 -4.000000e+01
      vertex -1.280000e+03 2.620000e+03 4.000000e+01
      vertex 1.280000e+03 2.620000e+03 4.000000e+01
    endloop
  endfacet
  facet normal 0.000000e+00 1.000000e+00 0.000000e+00
    outer loop
      vertex -1.280000e+03 2.620000e+03 -4.000000e+01
      vertex 1.280000e+03 2.620000e+03 4.000000e+01
      vertex 1.280000e+03 2.620000e+03 -4.000000e+01
    endloop
  endfacet
  facet normal 0.000000e+00 0.000000e+00 -1.000000e+00
    outer loop
      vertex -1.280000e+03 2.400000e+03 -4.000000e+01
      vertex -1.280000e+03 2.620000e+03 -4.000000e+01
      vertex 1.280000e+03 2.620000e+03 -4.000000e+01
    endloop
  endfacet
  facet normal 0.000000e+00 0.000000e+00 -1.000000e+00
    outer loop
      vertex -1.280000e+03 2.400000e+03 -4.000000e+01
      vertex 1.280000e+03 2.620000e+03 -4.000000e+01
      vertex 1.280000e+03 2.400000e+03 -4.000000e+01
    endloop
  endfacet
  facet normal 0.000000e+00 0.000000e+00 1.000000e+00
    outer loop
      vertex -1.280000e+03 2.400000e+03 4.000000e+01
      vertex 1.280000e+03 2.400000e+03 4.000000e+01
      vertex 1.280000e+03 2.620000e+03 4.000000e+01
    endloop
  endfacet
  facet normal 0.000000e+00 0.000000e+00 1.000000e+00
    outer loop
      vertex -1.280000e+03 2.400000e+03 4.000000e+01
      vertex 1.280000e+03 2.620000e+03 4.000000e+01
      vertex -1.280000e+03 2.620000e+03 4.000000e+01
    endloop
  endfacet
  facet normal -1.000000e+00 0.000000e+00 0.000000e+00
    outer loop
      vertex -1.200000e+03 0.000000e+00 -4.000000e+01
      vertex -1.200000e+03 0.000000e+00 4.000000e+01
      vertex -1.200000e+03 1.000000e+02 4.000000e+01
    endloop
  endfacet
  facet normal -1.000000e+00 0.000000e+00 0.000000e+00
    outer loop
      vertex -1.200000e+03 0.000000e+00 -4.000000e+01
      vertex -1.200000e+03 1.000000e+02 4.000000e+01
      vertex -1.200000e+03 1.000000e+02 -4.000000e+01
    endloop
  endfacet
  facet normal 1.000000e+00 0.000000e+00 0.000000e+00
    outer loop
      vertex 1.200000e+03 0.000000e+00 -4.000000e+01
      vertex 1.200000e+03 1.000000e+02 -4.000000e+01
      vertex 1.200000e+03 1.000000e+02 4.000000e+01
    endloop
  endfacet
  facet normal 1.000000e+00 0.000000e+00 0.000000e+00
    outer loop
      vertex 1.200000e+03 0.000000e+00 -4.000000e+01
      vertex 1.200000e+03 1.000000e+02 4.000000e+01
      vertex 1.200000e+03 0.000000e+00 4.000000e+01
    endloop
  endfacet
  facet normal 0.000000e+00 -1.000000e+00 0.000000e+00
    outer loop
      vertex -1.200000e+03 0.000000e+00 -4.000000e+01
      vertex 1.200000e+03 0.000000e+00 -4.000000e+01
      vertex 1.200000e+03 0.000000e+00 4.000000e+01
    endloop
  endfacet
  facet normal 0.000000e+00 -1.000000e+00 0.000000e+00
    outer loop
      vertex -1.200000e+03 0.000000e+00 -4.000000e+01
      vertex 1.200000e+03 0.000000e+00 4.000000e+01
      vertex -1.200000e+03 0.000000e+00 4.000000e+01
    endloop
  endfacet
  facet normal 0.000000e+00 1.000000e+00 0.000000e+00
    outer loop
      vertex -1.200000e+03 1.000000e+02 -4.000000e+01
      vertex -1.200000e+03 1.000000e+02 4.000000e+01
      vertex 1.200000e+03 1.000000e+02 4.000000e+01
    endloop
  endfacet
  facet normal 0.000000e+00 1.000000e+00 0.000000e+00
    outer loop
      vertex -1.200000e+03 1.000000e+02 -4.000000e+01
      vertex 1.200000e+03 1.000000e+02 4.000000e+01
      vertex 1.200000e+03 1.000000e+02 -4.000000e+01
    endloop
  endfacet
  facet normal 0.000000e+00 0.000000e+00 -1.000000e+00
    outer loop
      vertex -1.200000e+03 0.000000e+00 -4.000000e+01
      vertex -1.200000e+03 1.000000e+02 -4.000000e+01
      vertex 1.200000e+03 1.000000e+02 -4.000000e+01
    endloop
  endfacet
  facet normal 0.000000e+00 0.000000e+00 -1.000000e+00
    outer loop
      vertex -1.200000e+03 0.000000e+00 -4.000000e+01
      vertex 1.200000e+03 1.000000e+02 -4.000000e+01
      vertex 1.200000e+03 0.000000e+00 -4.000000e+01
    endloop
  endfacet
  facet normal 0.000000e+00 0.000000e+00 1.000000e+00
    outer loop
      vertex -1.200000e+03 0.000000e+00 4.000000e+01
      vertex 1.200000e+03 0.000000e+00 4.000000e+01
      vertex 1.200000e+03 1.000000e+02 4.000000e+01
    endloop
  endfacet
  facet normal 0.000000e+00 0.000000e+00 1.000000e+00
    outer loop
      vertex -1.200000e+03 0.000000e+00 4.000000e+01
      vertex 1.200000e+03 1.000000e+02 4.000000e+01
      vertex -1.200000e+03 1.000000e+02 4.000000e+01
    endloop
  endfacet
  facet normal -1.000000e+00 0.000000e+00 0.000000e+00
    outer loop
      vertex -1.200000e+03 1.000000e+02 -6.000000e+00
      vertex -1.200000e+03 1.000000e+02 6.000000e+00
      vertex -1.200000e+03 1.800000e+02 6.000000e+00
    endloop
  endfacet
  facet normal -1.000000e+00 0.000000e+00 0.000000e+00
    outer loop
      vertex -1.200000e+03 1.000000e+02 -6.000000e+00
      vertex -1.200000e+03 1.800000e+02 6.000000e+00
      vertex -1.200000e+03 1.800000e+02 -6.000000e+00
    endloop
  endfacet
  facet normal 1.000000e+00 0.000000e+00 0.000000e+00
    outer loop
      vertex 1.200000e+03 1.000000e+02 -6.000000e+00
      vertex 1.200000e+03 1.800000e+02 -6.000000e+00
      vertex 1.200000e+03 1.800000e+02 6.000000e+00
    endloop
  endfacet
  facet normal 1.000000e+00 0.000000e+00 0.000000e+00
    outer loop
      vertex 1.200000e+03 1.000000e+02 -6.000000e+00
      vertex 1.200000e+03 1.800000e+02 6.000000e+00
      vertex 1.200000e+03 1.000000e+02 6.000000e+00
    endloop
  endfacet
  facet normal 0.000000e+00 -1.000000e+00 0.000000e+00
    outer loop
      vertex -1.200000e+03 1.000000e+02 -6.000000e+00
      vertex 1.200000e+03 1.000000e+02 -6.000000e+00
      vertex 1.200000e+03 1.000000e+02 6.000000e+00
    endloop
  endfacet
  facet normal 0.000000e+00 -1.000000e+00 0.000000e+00
    outer loop
      vertex -1.200000e+03 1.000000e+02 -6.000000e+00
      vertex 1.200000e+03 1.000000e+02 6.000000e+00
      vertex -1.200000e+03 1.000000e+02 6.000000e+00
    endloop
  endfacet
  facet normal 0.000000e+00 1.000000e+00 0.000000e+00
    outer loop
      vertex -1.200000e+03 1.800000e+02 -6.000000e+00
      vertex -1.200000e+03 1.800000e+02 6.000000e+00
      vertex 1.200000e+03 1.800000e+02 6.000000e+00
    endloop
  endfacet
  facet normal 0.000000e+00 1.000000e+00 0.000000e+00
    outer loop
      vertex -1.200000e+03 1.800000e+02 -6.000000e+00
      vertex 1.200000e+03 1.800000e+02 6.000000e+00
      vertex 1.200000e+03 1.800000e+02 -6.000000e+00
    endloop
  endfacet
  facet normal 0.000000e+00 0.000000e+00 -1.000000e+00
    outer loop
      vertex -1.200000e+03 1.000000e+02 -6.000000e+00
      vertex -1.200000e+03 1.800000e+02 -6.000000e+00
      vertex 1.200000e+03 1.800000e+02 -6.000000e+00
    endloop
  endfacet
  facet normal 0.000000e+00 0.000000e+00 -1.000000e+00
    outer loop
      vertex -1.200000e+03 1.000000e+02 -6.000000e+00
      vertex 1.200000e+03 1.800000e+02 -6.000000e+00
      vertex 1.200000e+03 1.000000e+02 -6.000000e+00
    endloop
  endfacet
  facet normal 0.000000e+00 0.000000e+00 1.000000e+00
    outer loop
      vertex -1.200000e+03 1.000000e+02 6.000000e+00
      vertex 1.200000e+03 1.000000e+02 6.000000e+00
      vertex 1.200000e+03 1.800000e+02 6.000000e+00
    endloop
  endfacet
  facet normal 0.000000e+00 0.000000e+00 1.000000e+00
    outer loop
      vertex -1.200000e+03 1.000000e+02 6.000000e+00
      vertex 1.200000e+03 1.800000e+02 6.000000e+00
      vertex -1.200000e+03 1.800000e+02 6.000000e+00
    endloop
  endfacet
  facet normal -1.000000e+00 0.000000e+00 0.000000e+00
    outer loop
      vertex -1.200000e+03 1.800000e+02 -6.000000e+00
      vertex -1.200000e+03 1.800000e+02 6.000000e+00
      vertex -1.200000e+03 2.600000e+02 6.000000e+00
    endloop
  endfacet
  facet normal -1.000000e+00 0.000000e+00 0.000000e+00
    outer loop
      vertex -1.200000e+03 1.800000e+02 -6.000000e+00
      vertex -1.200000e+03 2.600000e+02 6.000000e+00
      vertex -1.200000e+03 2.600000e+02 -6.000000e+00
    endloop
  endfacet
  facet normal 1.000000e+00 0.000000e+00 0.000000e+00
    outer loop
      vertex 1.200000e+03 1.800000e+02 -6.000000e+00
      vertex 1.200000e+03 2.600000e+02 -6.000000e+00
      vertex 1.200000e+03 2.600000e+02 6.000000e+00
    endloop
  endfacet
  facet normal 1.000000e+00 0.000000e+00 0.000000e+00
    outer loop
      vertex 1.200000e+03 1.800000e+02 -6.000000e+00
      vertex 1.200000e+03 2.600000e+02 6.000000e+00
      vertex 1.200000e+03 1.800000e+02 6.000000e+00
    endloop
  endfacet
  facet normal 0.000000e+00 -1.000000e+00 0.000000e+00
    outer loop
      vertex -1.200000e+03 1.800000e+02 -6.000000e+00
      vertex 1.200000e+03 1.800000e+02 -6.000000e+00
      vertex 1.200000e+03 1.800000e+02 6.000000e+00
    endloop
  endfacet
  facet normal 0.000000e+00 -1.000000e+00 0.000000e+00
    outer loop
      vertex -1.200000e+03 1.800000e+02 -6.000000e+00
      vertex 1.200000e+03 1.800000e+02 6.000000e+00
      vertex -1.200000e+03 1.800000e+02 6.000000e+00
    endloop
  endfacet
  facet normal 0.000000e+00 1.000000e+00 0.000000e+00
    outer loop
      vertex -1.200000e+03 2.600000e+02 -6.000000e+00
      vertex -1.200000e+03 2.600000e+02 6.000000e+00
      vertex 1.200000e+03 2.600000e+02 6.000000e+00
    endloop
  endfacet
  facet normal 0.000000e+00 1.000000e+00 0.000000e+00
    outer loop
      vertex -1.200000e+03 2.600000e+02 -6.000000e+00
      vertex 1.200000e+03 2.600000e+02 6.000000e+00
      vertex 1.200000e+03 2.600000e+02 -6.000000e+00
    endloop
  endfacet
  facet normal 0.000000e+00 0.000000e+00 -1.000000e+00
    outer loop
      vertex -1.200000e+03 1.800000e+02 -6.000000e+00
      vertex -1.200000e+03 2.600000e+02 -6.000000e+00
      vertex 1.200000e+03 2.600000e+02 -6.000000e+00
    endloop
  endfacet
  facet normal 0.000000e+00 0.000000e+00 -1.000000e+00
    outer loop
      vertex -1.200000e+03 1.800000e+02 -6.000000e+00
      vertex 1.200000e+03 2.600000e+02 -6.000000e+00
      vertex 1.200000e+03 1.800000e+02 -6.000000e+00
    endloop
  endfacet
  facet normal 0.000000e+00 0.000000e+00 1.000000e+00
    outer loop
      vertex -1.200000e+03 1.800000e+02 6.000000e+00
      vertex 1.200000e+03 1.800000e+02 6.000000e+00
      vertex 1.200000e+03 2.600000e+02 6.000000e+00
    endloop
  endfacet
  facet normal 0.000000e+00 0.000000e+00 1.000000e+00
    outer loop
      vertex -1.200000e+03 1.800000e+02 6.000000e+00
      vertex 1.200000e+03 2.600000e+02 6.000000e+00
      vertex -1.200000e+03 2.600000e+02 6.000000e+00
    endloop
  endfacet
  facet normal -1.000000e+00 0.000000e+00 0.000000e+00
    outer loop
      vertex -1.200000e+03 2.600000e+02 -6.000000e+00
      vertex -1.200000e+03 2.600000e+02 6.000000e+00
      vertex -1.200000e+03 3.400000e+02 6.000000e+00
    endloop
  endfacet
  facet normal -1.000000e+00 0.000000e+00 0.000000e+00
    outer loop
      vertex -1.200000e+03 2.600000e+02 -6.000000e+00
      vertex -1.200000e+03 3.400000e+02 6.000000e+00
      vertex -1.200000e+03 3.400000e+02 -6.000000e+00
    endloop
  endfacet
  facet normal 1.000000e+00 0.000000e+00 0.000000e+00
    outer loop
      vertex 1.200000e+03 2.600000e+02 -6.000000e+00
      vertex 1.200000e+03 3.400000e+02 -6.000000e+00
      vertex 1.200000e+03 3.400000e+02 6.000000e+00
    endloop
  endfacet
  facet normal 1.000000e+00 0.000000e+00 0.000000e+00
    outer loop
      vertex 1.200000e+03 2.600000e+02 -6.000000e+00
      vertex 1.200000e+03 3.400000e+02 6.000000e+00
      vertex 1.200000e+03 2.600000e+02 6.000000e+00
    endloop
  endfacet
  facet normal 0.000000e+00 -1.000000e+00 0.000000e+00
    outer loop
      vertex -1.200000e+03 2.600000e+02 -6.000000e+00
      vertex 1.200000e+03 2.600000e+02 -6.000000e+00
      vertex 1.200000e+03 2.600000e+02 6.000000e+00
    endloop
  endfacet
  facet normal 0.000000e+00 -1.000000e+00 0.000000e+00
    outer loop
      vertex -1.200000e+03 2.600000e+02 -6.000000e+00
      vertex 1.200000e+03 2.600000e+02 6.000000e+00
      vertex -1.200000e+03 2.600000e+02 6.000000e+00
    endloop
  endfacet
  facet normal 0.000000e+00 1.000000e+00 0.000000e+00
    outer loop
      vertex -1.200000e+03 3.400000e+02 -6.000000e+00
      vertex -1.200000e+03 3.400000e+02 6.000000e+00
      vertex 1.200000e+03 3.400000e+02 6.000000e+00
    endloop
  endfacet
  facet normal 0.000000e+00 1.000000e+00 0.000000e+00
    outer loop
      vertex -1.200000e+03 3.400000e+02 -6.000000e+00
      vertex 1.200000e+03 3.400000e+02 6.000000e+00
      vertex 1.200000e+03 3.400000e+02 -6.000000e+00
    endloop
  endfacet
  facet normal 0.000000e+00 0.000000e+00 -1.000000e+00
    outer loop
      vertex -1.200000e+03 2.600000e+02 -6.000000e+00
      vertex -1.200000e+03 3.400000e+02 -6.000000e+00
      vertex 1.200000e+03 3.400000e+02 -6.000000e+00
    endloop
  endfacet
  facet normal 0.000000e+00 0.000000e+00 -1.000000e+00
    outer loop
      vertex -1.200000e+03 2.600000e+02 -6.000000e+00
      vertex 1.200000e+03 3.400000e+02 -6.000000e+00
      vertex 1.200000e+03 2.600000e+02 -6.000000e+00
    endloop
  endfacet
  facet normal 0.000000e+00 0.000000e+00 1.000000e+00
    outer loop
      vertex -1.200000e+03 2.600000e+02 6.000000e+00
      vertex 1.200000e+03 2.600000e+02 6.000000e+00
      vertex 1.200000e+03 3.400000e+02 6.000000e+00
    endloop
  endfacet
  facet normal 0.000000e+00 0.000000e+00 1.000000e+00
    outer loop
      vertex -1.200000e+03 2.600000e+02 6.000000e+00
      vertex 1.200000e+03 3.400000e+02 6.000000e+00
      vertex -1.200000e+03 3.400000e+02 6.000000e+00
    endloop
  endfacet
  facet normal -1.000000e+00 0.000000e+00 0.000000e+00
    outer loop
      vertex -1.200000e+03 3.400000e+02 -6.000000e+00
      vertex -1.200000e+03 3.400000e+02 6.000000e+00
      vertex -1.200000e+03 4.200000e+02 6.000000e+00
    endloop
  endfacet
  facet normal -1.000000e+00 0.000000e+00 0.000000e+00
    outer loop
      vertex -1.200000e+03 3.400000e+02 -6.000000e+00
      vertex -1.200000e+03 4.200000e+02 6.000000e+00
      vertex -1.200000e+03 4.200000e+02 -6.000000e+00
    endloop
  endfacet
  facet normal 1.000000e+00 0.000000e+00 0.000000e+00
    outer loop
      vertex 1.200000e+03 3.400000e+02 -6.000000e+00
      vertex 1.200000e+03 4.200000e+02 -6.000000e+00
      vertex 1.200000e+03 4.200000e+02 6.000000e+00
    endloop
  endfacet
  facet normal 1.000000e+00 0.000000e+00 0.000000e+00
    outer loop
      vertex 1.200000e+03 3.400000e+02 -6.000000e+00
      vertex 1.200000e+03 4.200000e+02 6.000000e+00
      vertex 1.200000e+03 3.400000e+02 6.000000e+00
    endloop
  endfacet
  facet normal 0.000000e+00 -1.000000e+00 0.000000e+00
    outer loop
      vertex -1.200000e+03 3.400000e+02 -6.000000e+00
      vertex 1.200000e+03 3.400000e+02 -6.000000e+00
      vertex 1.200000e+03 3.400000e+02 6.000000e+00
    endloop
  endfacet
  facet normal 0.000000e+00 -1.000000e+00 0.000000e+00
    outer loop
      vertex -1.200000e+03 3.400000e+02 -6.000000e+00
      vertex 1.200000e+03 3.400000e+02 6.000000e+00
      vertex -1.200000e+03 3.400000e+02 6.000000e+00
    endloop
  endfacet
  facet normal 0.000000e+00 1.000000e+00 0.000000e+00
    outer loop
      vertex -1.200000e+03 4.200000e+02 -6.000000e+00
      vertex -1.200000e+03 4.200000e+02 6.000000e+00
      vertex 1.200000e+03 4.200000e+02 6.000000e+00
    endloop
  endfacet
  facet normal 0.000000e+00 1.000000e+00 0.000000e+00
    outer loop
      vertex -1.200000e+03 4.200000e+02 -6.000000e+00
      vertex 1.200000e+03 4.200000e+02 6.000000e+00
      vertex 1.200000e+03 4.200000e+02 -6.000000e+00
    endloop
  endfacet
  facet normal 0.000000e+00 0.000000e+00 -1.000000e+00
    outer loop
      vertex -1.200000e+03 3.400000e+02 -6.000000e+00
      vertex -1.200000e+03 4.200000e+02 -6.000000e+00
      vertex 1.200000e+03 4.200000e+02 -6.000000e+00
    endloop
  endfacet
  facet normal 0.000000e+00 0.000000e+00 -1.000000e+00
    outer loop
      vertex -1.200000e+03 3.400000e+02 -6.000000e+00
      vertex 1.200000e+03 4.200000e+02 -6.000000e+00
      vertex 1.200000e+03 3.400000e+02 -6.000000e+00
    endloop
  endfacet
  facet normal 0.000000e+00 0.000000e+00 1.000000e+00
    outer loop
      vertex -1.200000e+03 3.400000e+02 6.000000e+00
      vertex 1.200000e+03 3.400000e+02 6.000000e+00
      vertex 1.200000e+03 4.200000e+02 6.000000e+00
    endloop
  endfacet
  facet normal 0.000000e+00 0.000000e+00 1.000000e+00
    outer loop
      vertex -1.200000e+03 3.400000e+02 6.000000e+00
      vertex 1.200000e+03 4.200000e+02 6.000000e+00
      vertex -1.200000e+03 4.200000e+02 6.000000e+00
    endloop
  endfacet
  facet normal -1.000000e+00 0.000000e+00 0.000000e+00
    outer loop
      vertex -1.200000e+03 4.200000e+02 -6.000000e+00
      vertex -1.200000e+03 4.200000e+02 6.000000e+00
      vertex -1.200000e+03 5.000000e+02 6.000000e+00
    endloop
  endfacet
  facet normal -1.000000e+00 0.000000e+00 0.000000e+00
    outer loop
      vertex -1.200000e+03 4.200000e+02 -6.000000e+00
      vertex -1.200000e+03 5.000000e+02 6.000000e+00
      vertex -1.200000e+03 5.000000e+02 -6.000000e+00
    endloop
  endfacet
  facet normal 1.000000e+00 0.000000e+00 0.000000e+00
    outer loop
      vertex 1.200000e+03 4.200000e+02 -6.000000e+00
      vertex 1.200000e+03 5.000000e+02 -6.000000e+00
      vertex 1.200000e+03 5.000000e+02 6.000000e+00
    endloop
  endfacet
  facet normal 1.000000e+00 0.000000e+00 0.000000e+00
    outer loop
      vertex 1.200000e+03 4.200000e+02 -6.000000e+00
      vertex 1.200000e+03 5.000000e+02 6.000000e+00
      vertex 1.200000e+03 4.200000e+02 6.000000e+00
    endloop
  endfacet
  facet normal 0.000000e+00 -1.000000e+00 0.000000e+00
    outer loop
      vertex -1.200000e+03 4.200000e+02 -6.000000e+00
      vertex 1.200000e+03 4.200000e+02 -6.000000e+00
      vertex 1.200000e+03 4.200000e+02 6.000000e+00
    endloop
  endfacet
  facet normal 0.000000e+00 -1.000000e+00 0.000000e+00
    outer loop
      vertex -1.200000e+03 4.200000e+02 -6.000000e+00
      vertex 1.200000e+03 4.200000e+02 6.000000e+00
      vertex -1.200000e+03 4.200000e+02 6.000000e+00
    endloop
  endfacet
  facet normal 0.000000e+00 1.000000e+00 0.000000e+00
    outer loop
      vertex -1.200000e+03 5.000000e+02 -6.000000e+00
      vertex -1.200000e+03 5.000000e+02 6.000000e+00
      vertex 1.200000e+03 5.000000e+02 6.000000e+00
    endloop
  endfacet
  facet normal 0.000000e+00 1.000000e+00 0.000000e+00
    outer loop
      vertex -1.200000e+03 5.000000e+02 -6.000000e+00
      vertex 1.200000e+03 5.000000e+02 6.000000e+00
      vertex 1.200000e+03 5.000000e+02 -6.000000e+00
    endloop
  endfacet
  facet normal 0.000000e+00 0.000000e+00 -1.000000e+00
    outer loop
      vertex -1.200000e+03 4.200000e+02 -6.000000e+00
      vertex -1.200000e+03 5.000000e+02 -6.000000e+00
      vertex 1.200000e+03 5.000000e+02 -6.000000e+00
    endloop
  endfacet
  facet normal 0.000000e+00 0.000000e+00 -1.000000e+00
    outer loop
      vertex -1.200000e+03 4.200000e+02 -6.000000e+00
      vertex 1.200000e+03 5.000000e+02 -6.000000e+00
      vertex 1.200000e+03 4.200000e+02 -6.000000e+00
    endloop
  endfacet
  facet normal 0.000000e+00 0.000000e+00 1.000000e+00
    outer loop
      vertex -1.200000e+03 4.200000e+02 6.000000e+00
      vertex 1.200000e+03 4.200000e+02 6.000000e+00
      vertex 1.200000e+03 5.000000e+02 6.000000e+00
    endloop
  endfacet
  facet normal 0.000000e+00 0.000000e+00 1.000000e+00
    outer loop
      vertex -1.200000e+03 4.200000e+02 6.000000e+00
      vertex 1.200000e+03 5.000000e+02 6.000000e+00
      vertex -1.200000e+03 5.000000e+02 6.000000e+00
    endloop
  endfacet
  facet normal -1.000000e+00 0.000000e+00 0.000000e+00
    outer loop
      vertex -1.200000e+03 5.000000e+02 -6.000000e+00
      vertex -1.200000e+03 5.000000e+02 6.000000e+00
      vertex -1.200000e+03 5.800000e+02 6.000000e+00
    endloop
  endfacet
  facet normal -1.000000e+00 0.000000e+00 0.000000e+00
    outer loop
      vertex -1.200000e+03 5.000000e+02 -6.000000e+00
      vertex -1.200000e+03 5.800000e+02 6.000000e+00
      vertex -1.200000e+03 5.800000e+02 -6.000000e+00
    endloop
  endfacet
  facet normal 1.000000e+00 0.000000e+00 0.000000e+00
    outer loop
      vertex 1.200000e+03 5.000000e+02 -6.000000e+00
      vertex 1.200000e+03 5.800000e+02 -6.000000e+00
      vertex 1.200000e+03 5.800000e+02 6.000000e+00
    endloop
  endfacet
  facet normal 1.000000e+00 0.000000e+00 0.000000e+00
    outer loop
      vertex 1.200000e+03 5.000000e+02 -6.000000e+00
      vertex 1.200000e+03 5.800000e+02 6.000000e+00
      vertex 1.200000e+03 5.000000e+02 6.000000e+00
    endloop
  endfacet
  facet normal 0.000000e+00 -1.000000e+00 0.000000e+00
    outer loop
      vertex -1.200000e+03 5.000000e+02 -6.000000e+00
      vertex 1.200000e+03 5.000000e+02 -6.000000e+00
      vertex 1.200000e+03 5.000000e+02 6.000000e+00
    endloop
  endfacet
  facet normal 0.000000e+00 -1.000000e+00 0.000000e+00
    outer loop
      vertex -1.200000e+03 5.000000e+02 -6.000000e+00
      vertex 1.200000e+03 5.000000e+02 6.000000e+00
      vertex -1.200000e+03 5.000000e+02 6.000000e+00
    endloop
  endfacet
  facet normal 0.000000e+00 1.000000e+00 0.000000e+00
    outer loop
      vertex -1.200000e+03 5.800000e+02 -6.000000e+00
      vertex -1.200000e+03 5.800000e+02 6.000000e+00
      vertex 1.200000e+03 5.800000e+02 6.000000e+00
    endloop
  endfacet
  facet normal 0.000000e+00 1.000000e+00 0.000000e+00
    outer loop
      vertex -1.200000e+03 5.800000e+02 -6.000000e+00
      vertex 1.200000e+03 5.800000e+02 6.000000e+00
      vertex 1.200000e+03 5.800000e+02 -6.000000e+00
    endloop
  endfacet
  facet normal 0.000000e+00 0.000000e+00 -1.000000e+00
    outer loop
      vertex -1.200000e+03 5.000000e+02 -6.000000e+00
      vertex -1.200000e+03 5.800000e+02 -6.000000e+00
      vertex 1.200000e+03 5.800000e+02 -6.000000e+00
    endloop
  endfacet
  facet normal 0.000000e+00 0.000000e+00 -1.000000e+00
    outer loop
      vertex -1.200000e+03 5.000000e+02 -6.000000e+00
      vertex 1.200000e+03 5.800000e+02 -6.000000e+00
      vertex 1.200000e+03 5.000000e+02 -6.000000e+00
    endloop
  endfacet
  facet normal 0.000000e+00 0.000000e+00 1.000000e+00
    outer loop
      vertex -1.200000e+03 5.000000e+02 6.000000e+00
      vertex 1.200000e+03 5.000000e+02 6.000000e+00
      vertex 1.200000e+03 5.800000e+02 6.000000e+00
    endloop
  endfacet
  facet normal 0.000000e+00 0.000000e+00 1.000000e+00
    outer loop
      vertex -1.200000e+03 5.000000e+02 6.000000e+00
      vertex 1.200000e+03 5.800000e+02 6.000000e+00
      vertex -1.200000e+03 5.800000e+02 6.000000e+00
    endloop
  endfacet
  facet normal -1.000000e+00 0.000000e+00 0.000000e+00
    outer loop
      vertex -1.200000e+03 5.800000e+02 -6.000000e+00
      vertex -1.200000e+03 5.800000e+02 6.000000e+00
      vertex -1.200000e+03 6.600000e+02 6.000000e+00
    endloop
  endfacet
  facet normal -1.000000e+00 0.000000e+00 0.000000e+00
    outer loop
      vertex -1.200000e+03 5.800000e+02 -6.000000e+00
      vertex -1.200000e+03 6.600000e+02 6.000000e+00
      vertex -1.200000e+03 6.600000e+02 -6.000000e+00
    endloop
  endfacet
  facet normal 1.000000e+00 0.000000e+00 0.000000e+00
    outer loop
      vertex 1.200000e+03 5.800000e+02 -6.000000e+00
      vertex 1.200000e+03 6.600000e+02 -6.000000e+00
      vertex 1.200000e+03 6.600000e+02 6.000000e+00
    endloop
  endfacet
  facet normal 1.000000e+00 0.000000e+00 0.000000e+00
    outer loop
      vertex 1.200000e+03 5.800000e+02 -6.000000e+00
      vertex 1.200000e+03 6.600000e+02 6.000000e+00
      vertex 1.200000e+03 5.800000e+02 6.000000e+00
    endloop
  endfacet
  facet normal 0.000000e+00 -1.000000e+00 0.000000e+00
    outer loop
      vertex -1.200000e+03 5.800000e+02 -6.000000e+00
      vertex 1.200000e+03 5.800000e+02 -6.000000e+00
      vertex 1.200000e+03 5.800000e+02 6.000000e+00
    endloop
  endfacet
  facet normal 0.000000e+00 -1.000000e+00 0.000000e+00
    outer loop
      vertex -1.200000e+03 5.800000e+02 -6.000000e+00
      vertex 1.200000e+03 5.800000e+02 6.000000e+00
      vertex -1.200000e+03 5.800000e+02 6.000000e+00
    endloop
  endfacet
  facet normal 0.000000e+00 1.000000e+00 0.000000e+00
    outer loop
      vertex -1.200000e+03 6.600000e+02 -6.000000e+00
      vertex -1.200000e+03 6.600000e+02 6.000000e+00
      vertex 1.200000e+03 6.600000e+02 6.000000e+00
    endloop
  endfacet
  facet normal 0.000000e+00 1.000000e+00 0.000000e+00
    outer loop
      vertex -1.200000e+03 6.600000e+02 -6.000000e+00
      vertex 1.200000e+03 6.600000e+02 6.000000e+00
      vertex 1.200000e+03 6.600000e+02 -6.000000e+00
    endloop
  endfacet
  facet normal 0.000000e+00 0.000000e+00 -1.000000e+00
    outer loop
      vertex -1.200000e+03 5.800000e+02 -6.000000e+00
      vertex -1.200000e+03 6.600000e+02 -6.000000e+00
      vertex 1.200000e+03 6.600000e+02 -6.000000e+00
    endloop
  endfacet
  facet normal 0.000000e+00 0.000000e+00 -1.000000e+00
    outer loop
      vertex -1.200000e+03 5.800000e+02 -6.000000e+00
      vertex 1.200000e+03 6.600000e+02 -6.000000e+00
      vertex 1.200000e+03 5.800000e+02 -6.000000e+00
    endloop
  endfacet
  facet normal 0.000000e+00 0.000000e+00 1.000000e+00
    outer loop
      vertex -1.200000e+03 5.800000e+02 6.000000e+00
      vertex 1.200000e+03 5.800000e+02 6.000000e+00
      vertex 1.200000e+03 6.600000e+02 6.000000e+00
    endloop
  endfacet
  facet normal 0.000000e+00 0.000000e+00 1.000000e+00
    outer loop
      vertex -1.200000e+03 5.800000e+02 6.000000e+00
      vertex 1.200000e+03 6.600000e+02 6.000000e+00
      vertex -1.200000e+03 6.600000e+02 6.000000e+00
    endloop
  endfacet
  facet normal -1.000000e+00 0.000000e+00 0.000000e+00
    outer loop
      vertex -1.200000e+03 6.600000e+02 -6.000000e+00
      vertex -1.200000e+03 6.600000e+02 6.000000e+00
      vertex -1.200000e+03 7.400000e+02 6.000000e+00
    endloop
  endfacet
  facet normal -1.000000e+00 0.000000e+00 0.000000e+00
    outer loop
      vertex -1.200000e+03 6.600000e+02 -6.000000e+00
      vertex -1.200000e+03 7.400000e+02 6.000000e+00
      vertex -1.200000e+03 7.400000e+02 -6.000000e+00
    endloop
  endfacet
  facet normal 1.000000e+00 0.000000e+00 0.000000e+00
    outer loop
      vertex 1.200000e+03 6.600000e+02 -6.000000e+00
      vertex 1.200000e+03 7.400000e+02 -6.000000e+00
      vertex 1.200000e+03 7.400000e+02 6.000000e+00
    endloop
  endfacet
  facet normal 1.000000e+00 0.000000e+00 0.000000e+00
    outer loop
      vertex 1.200000e+03 6.600000e+02 -6.000000e+00
      vertex 1.200000e+03 7.400000e+02 6.000000e+00
      vertex 1.200000e+03 6.600000e+02 6.000000e+00
    endloop
  endfacet
  facet normal 0.000000e+00 -1.000000e+00 0.000000e+00
    outer loop
      vertex -1.200000e+03 6.600000e+02 -6.000000e+00
      vertex 1.200000e+03 6.600000e+02 -6.000000e+00
      vertex 1.200000e+03 6.600000e+02 6.000000e+00
    endloop
  endfacet
  facet normal 0.000000e+00 -1.000000e+00 0.000000e+00
    outer loop
      vertex -1.200000e+03 6.600000e+02 -6.000000e+00
      vertex 1.200000e+03 6.600000e+02 6.000000e+00
      vertex -1.200000e+03 6.600000e+02 6.000000e+00
    endloop
  endfacet
  facet normal 0.000000e+00 1.000000e+00 0.000000e+00
    outer loop
      vertex -1.200000e+03 7.400000e+02 -6.000000e+00
      vertex -1.200000e+03 7.400000e+02 6.000000e+00
      vertex 1.200000e+03 7.400000e+02 6.000000e+00
    endloop
  endfacet
  facet normal 0.000000e+00 1.000000e+00 0.000000e+00
    outer loop
      vertex -1.200000e+03 7.400000e+02 -6.000000e+00
      vertex 1.200000e+03 7.400000e+02 6.000000e+00
      vertex 1.200000e+03 7.400000e+02 -6.000000e+00
    endloop
  endfacet
  facet normal 0.000000e+00 0.000000e+00 -1.000000e+00
    outer loop
      vertex -1.200000e+03 6.600000e+02 -6.000000e+00
      vertex -1.200000e+03 7.400000e+02 -6.000000e+00
      vertex 1.200000e+03 7.400000e+02 -6.000000e+00
    endloop
  endfacet
  facet normal 0.000000e+00 0.000000e+00 -1.000000e+00
    outer loop
      vertex -1.200000e+03 6.600000e+02 -6.000000e+00
      vertex 1.200000e+03 7.400000e+02 -6.000000e+00
      vertex 1.200000e+03 6.600000e+02 -6.000000e+00
    endloop
  endfacet
  facet normal 0.000000e+00 0.000000e+00 1.000000e+00
    outer loop
      vertex -1.200000e+03 6.600000e+02 6.000000e+00
      vertex 1.200000e+03 6.600000e+02 6.000000e+00
      vertex 1.200000e+03 7.400000e+02 6.000000e+00
    endloop
  endfacet
  facet normal 0.000000e+00 0.000000e+00 1.000000e+00
    outer loop
      vertex -1.200000e+03 6.600000e+02 6.000000e+00
      vertex 1.200000e+03 7.400000e+02 6.000000e+00
      vertex -1.200000e+03 7.400000e+02 6.000000e+00
    endloop
  endfacet
  facet normal -1.000000e+00 0.000000e+00 0.000000e+00
    outer loop
      vertex -1.200000e+03 7.400000e+02 -6.000000e+00
      vertex -1.200000e+03 7.400000e+02 6.000000e+00
      vertex -1.200000e+03 8.200000e+02 6.000000e+00
    endloop
  endfacet
  facet normal -1.000000e+00 0.000000e+00 0.000000e+00
    outer loop
      vertex -1.200000e+03 7.400000e+02 -6.000000e+00
      vertex -1.200000e+03 8.200000e+02 6.000000e+00
      vertex -1.200000e+03 8.200000e+02 -6.000000e+00
    endloop
  endfacet
  facet normal 1.000000e+00 0.000000e+00 0.000000e+00
    outer loop
      vertex 1.200000e+03 7.400000e+02 -6.000000e+00
      vertex 1.200000e+03 8.200000e+02 -6.000000e+00
      vertex 1.200000e+03 8.200000e+02 6.000000e+00
    endloop
  endfacet
  facet normal 1.000000e+00 0.000000e+00 0.000000e+00
    outer loop
      vertex 1.200000e+03 7.400000e+02 -6.000000e+00
      vertex 1.200000e+03 8.200000e+02 6.000000e+00
      vertex 1.200000e+03 7.400000e+02 6.000000e+00
    endloop
  endfacet
  facet normal 0.000000e+00 -1.000000e+00 0.000000e+00
    outer loop
      vertex -1.200000e+03 7.400000e+02 -6.000000e+00
      vertex 1.200000e+03 7.400000e+02 -6.000000e+00
      vertex 1.200000e+03 7.400000e+02 6.000000e+00
    endloop
  endfacet
  facet normal 0.000000e+00 -1.000000e+00 0.000000e+00
    outer loop
      vertex -1.200000e+03 7.400000e+02 -6.000000e+00
      vertex 1.200000e+03 7.400000e+02 6.000000e+00
      vertex -1.200000e+03 7.400000e+02 6.000000e+00
    endloop
  endfacet
  facet normal 0.000000e+00 1.000000e+00 0.000000e+00
    outer loop
      vertex -1.200000e+03 8.200000e+02 -6.000000e+00
      vertex -1.200000e+03 8.200000e+02 6.000000e+00
      vertex 1.200000e+03 8.200000e+02 6.000000e+00
    endloop
  endfacet
  facet normal 0.000000e+00 1.000000e+00 0.000000e+00
    outer loop
      vertex -1.200000e+03 8.200000e+02 -6.000000e+00
      vertex 1.200000e+03 8.200000e+02 6.000000e+00
      vertex 1.200000e+03 8.200000e+02 -6.000000e+00
    endloop
  endfacet
  facet normal 0.000000e+00 0.000000e+00 -1.000000e+00
    outer loop
      vertex -1.200000e+03 7.400000e+02 -6.000000e+00
      vertex -1.200000e+03 8.200000e+02 -6.000000e+00
      vertex 1.200000e+03 8.200000e+02 -6.000000e+00
    endloop
  endfacet
  facet normal 0.000000e+00 0.000000e+00 -1.000000e+00
    outer loop
      vertex -1.200000e+03 7.400000e+02 -6.000000e+00
      vertex 1.200000e+03 8.200000e+02 -6.000000e+00
      vertex 1.200000e+03 7.400000e+02 -6.000000e+00
    endloop
  endfacet
  facet normal 0.000000e+00 0.000000e+00 1.000000e+00
    outer loop
      vertex -1.200000e+03 7.400000e+02 6.000000e+00
      vertex 1.200000e+03 7.400000e+02 6.000000e+00
      vertex 1.200000e+03 8.200000e+02 6.000000e+00
    endloop
  endfacet
  facet normal 0.000000e+00 0.000000e+00 1.000000e+00
    outer loop
      vertex -1.200000e+03 7.400000e+02 6.000000e+00
      vertex 1.200000e+03 8.200000e+02 6.000000e+00
      vertex -1.200000e+03 8.200000e+02 6.000000e+00
    endloop
  endfacet
  facet normal -1.000000e+00 0.000000e+00 0.000000e+00
    outer loop
      vertex -1.200000e+03 8.200000e+02 -6.000000e+00
      vertex -1.200000e+03 8.200000e+02 6.000000e+00
      vertex -1.200000e+03 9.000000e+02 6.000000e+00
    endloop
  endfacet
  facet normal -1.000000e+00 0.000000e+00 0.000000e+00
    outer loop
      vertex -1.200000e+03 8.200000e+02 -6.000000e+00
      vertex -1.200000e+03 9.000000e+02 6.000000e+00
      vertex -1.200000e+03 9.000000e+02 -6.000000e+00
    endloop
  endfacet
  facet normal 1.000000e+00 0.000000e+00 0.000000e+00
    outer loop
      vertex 1.200000e+03 8.200000e+02 -6.000000e+00
      vertex 1.200000e+03 9.000000e+02 -6.000000e+00
      vertex 1.200000e+03 9.000000e+02 6.000000e+00
    endloop
  endfacet
  facet normal 1.000000e+00 0.000000e+00 0.000000e+00
    outer loop
      vertex 1.200000e+03 8.200000e+02 -6.000000e+00
      vertex 1.200000e+03 9.000000e+02 6.000000e+00
      vertex 1.200000e+03 8.200000e+02 6.000000e+00
    endloop
  endfacet
  facet normal 0.000000e+00 -1.000000e+00 0.000000e+00
    outer loop
      vertex -1.200000e+03 8.200000e+02 -6.000000e+00
      vertex 1.200000e+03 8.200000e+02 -6.000000e+00
      vertex 1.200000e+03 8.200000e+02 6.000000e+00
    endloop
  endfacet
  facet normal 0.000000e+00 -1.000000e+00 0.000000e+00
    outer loop
      vertex -1.200000e+03 8.200000e+02 -6.000000e+00
      vertex 1.200000e+03 8.200000e+02 6.000000e+00
      vertex -1.200000e+03 8.200000e+02 6.000000e+00
    endloop
  endfacet
  facet normal 0.000000e+00 1.000000e+00 0.000000e+00
    outer loop
      vertex -1.200000e+03 9.000000e+02 -6.000000e+00
      vertex -1.200000e+03 9.000000e+02 6.000000e+00
      vertex 1.200000e+03 9.000000e+02 6.000000e+00
    endloop
  endfacet
  facet normal 0.000000e+00 1.000000e+00 0.000000e+00
    outer loop
      vertex -1.200000e+03 9.000000e+02 -6.000000e+00
      vertex 1.200000e+03 9.000000e+02 6.000000e+00
      vertex 1.200000e+03 9.000000e+02 -6.000000e+00
    endloop
  endfacet
  facet normal 0.000000e+00 0.000000e+00 -1.000000e+00
    outer loop
      vertex -1.200000e+03 8.200000e+02 -6.000000e+00
      vertex -1.200000e+03 9.000000e+02 -6.000000e+00
      vertex 1.200000e+03 9.000000e+02 -6.000000e+00
    endloop
  endfacet
  facet normal 0.000000e+00 0.000000e+00 -1.000000e+00
    outer loop
      vertex -1.200000e+03 8.200000e+02 -6.000000e+00
      vertex 1.200000e+03 9.000000e+02 -6.000000e+00
      vertex 1.200000e+03 8.200000e+02 -6.000000e+00
    endloop
  endfacet
  facet normal 0.000000e+00 0.000000e+00 1.000000e+00
    outer loop
      vertex -1.200000e+03 8.200000e+02 6.000000e+00
      vertex 1.200000e+03 8.200000e+02 6.000000e+00
      vertex 1.200000e+03 9.000000e+02 6.000000e+00
    endloop
  endfacet
  facet normal 0.000000e+00 0.000000e+00 1.000000e+00
    outer loop
      vertex -1.200000e+03 8.200000e+02 6.000000e+00
      vertex 1.200000e+03 9.000000e+02 6.000000e+00
      vertex -1.200000e+03 9.000000e+02 6.000000e+00
    endloop
  endfacet
  facet normal -1.000000e+00 0.000000e+00 0.000000e+00
    outer loop
      vertex -1.200000e+03 9.000000e+02 -6.000000e+00
      vertex -1.200000e+03 9.000000e+02 6.000000e+00
      vertex -1.200000e+03 9.800000e+02 6.000000e+00
    endloop
  endfacet
  facet normal -1.000000e+00 0.000000e+00 0.000000e+00
    outer loop
      vertex -1.200000e+03 9.000000e+02 -6.000000e+00
      vertex -1.200000e+03 9.800000e+02 6.000000e+00
      vertex -1.200000e+03 9.800000e+02 -6.000000e+00
    endloop
  endfacet
  facet normal 1.000000e+00 0.000000e+00 0.000000e+00
    outer loop
      vertex 1.200000e+03 9.000000e+02 -6.000000e+00
      vertex 1.200000e+03 9.800000e+02 -6.000000e+00
      vertex 1.200000e+03 9.800000e+02 6.000000e+00
    endloop
  endfacet
  facet normal 1.000000e+00 0.000000e+00 0.000000e+00
    outer loop
      vertex 1.200000e+03 9.000000e+02 -6.000000e+00
      vertex 1.200000e+03 9.800000e+02 6.000000e+00
      vertex 1.200000e+03 9.000000e+02 6.000000e+00
    endloop
  endfacet
  facet normal 0.000000e+00 -1.000000e+00 0.000000e+00
    outer loop
      vertex -1.200000e+03 9.000000e+02 -6.000000e+00
      vertex 1.200000e+03 9.000000e+02 -6.000000e+00
      vertex 1.200000e+03 9.000000e+02 6.000000e+00
    endloop
  endfacet
  facet normal 0.000000e+00 -1.000000e+00 0.000000e+00
    outer loop
      vertex -1.200000e+03 9.000000e+02 -6.000000e+00
      vertex 1.200000e+03 9.000000e+02 6.000000e+00
      vertex -1.200000e+03 9.000000e+02 6.000000e+00
    endloop
  endfacet
  facet normal 0.000000e+00 1.000000e+00 0.000000e+00
    outer loop
      vertex -1.200000e+03 9.800000e+02 -6.000000e+00
      vertex -1.200000e+03 9.800000e+02 6.000000e+00
      vertex 1.200000e+03 9.800000e+02 6.000000e+00
    endloop
  endfacet
  facet normal 0.000000e+00 1.000000e+00 0.000000e+00
    outer loop
      vertex -1.200000e+03 9.800000e+02 -6.000000e+00
      vertex 1.200000e+03 9.800000e+02 6.000000e+00
      vertex 1.200000e+03 9.800000e+02 -6.000000e+00
    endloop
  endfacet
  facet normal 0.000000e+00 0.000000e+00 -1.000000e+00
    outer loop
      vertex -1.200000e+03 9.000000e+02 -6.000000e+00
      vertex -1.200000e+03 9.800000e+02 -6.000000e+00
      vertex 1.200000e+03 9.800000e+02 -6.000000e+00
    endloop
  endfacet
  facet normal 0.000000e+00 0.000000e+00 -1.000000e+00
    outer loop
      vertex -1.200000e+03 9.000000e+02 -6.000000e+00
      vertex 1.200000e+03 9.800000e+02 -6.000000e+00
      vertex 1.200000e+03 9.000000e+02 -6.000000e+00
    endloop
  endfacet
  facet normal 0.000000e+00 0.000000e+00 1.000000e+00
    outer loop
      vertex -1.200000e+03 9.000000e+02 6.000000e+00
      vertex 1.200000e+03 9.000000e+02 6.000000e+00
      vertex 1.200000e+03 9.800000e+02 6.000000e+00
    endloop
  endfacet
  facet normal 0.000000e+00 0.000000e+00 1.000000e+00
    outer loop
      vertex -1.200000e+03 9.000000e+02 6.000000e+00
      vertex 1.200000e+03 9.800000e+02 6.000000e+00
      vertex -1.200000e+03 9.800000e+02 6.000000e+00
    endloop
  endfacet
  facet normal -1.000000e+00 0.000000e+00 0.000000e+00
    outer loop
      vertex -1.200000e+03 9.800000e+02 -6.000000e+00
      vertex -1.200000e+03 9.800000e+02 6.000000e+00
      vertex -1.200000e+03 1.060000e+03 6.000000e+00
    endloop
  endfacet
  facet normal -1.000000e+00 0.000000e+00 0.000000e+00
    outer loop
      vertex -1.200000e+03 9.800000e+02 -6.000000e+00
      vertex -1.200000e+03 1.060000e+03 6.000000e+00
      vertex -1.200000e+03 1.060000e+03 -6.000000e+00
    endloop
  endfacet
  facet normal 1.000000e+00 0.000000e+00 0.000000e+00
    outer loop
      vertex 1.200000e+03 9.800000e+02 -6.000000e+00
      vertex 1.200000e+03 1.060000e+03 -6.000000e+00
      vertex 1.200000e+03 1.060000e+03 6.000000e+00
    endloop
  endfacet
  facet normal 1.000000e+00 0.000000e+00 0.000000e+00
    outer loop
      vertex 1.200000e+03 9.800000e+02 -6.000000e+00
      vertex 1.200000e+03 1.060000e+03 6.000000e+00
      vertex 1.200000e+03 9.800000e+02 6.000000e+00
    endloop
  endfacet
  facet normal 0.000000e+00 -1.000000e+00 0.000000e+00
    outer loop
      vertex -1.200000e+03 9.800000e+02 -6.000000e+00
      vertex 1.200000e+03 9.800000e+02 -6.000000e+00
      vertex 1.200000e+03 9.800000e+02 6.000000e+00
    endloop
  endfacet
  facet normal 0.000000e+00 -1.000000e+00 0.000000e+00
    outer loop
      vertex -1.200000e+03 9.800000e+02 -6.000000e+00
      vertex 1.200000e+03 9.800000e+02 6.000000e+00
      vertex -1.200000e+03 9.800000e+02 6.000000e+00
    endloop
  endfacet
  facet normal 0.000000e+00 1.000000e+00 0.000000e+00
    outer loop
      vertex -1.200000e+03 1.060000e+03 -6.000000e+00
      vertex -1.200000e+03 1.060000e+03 6.000000e+00
      vertex 1.200000e+03 1.060000e+03 6.000000e+00
    endloop
  endfacet
  facet normal 0.000000e+00 1.000000e+00 0.000000e+00
    outer loop
      vertex -1.200000e+03 1.060000e+03 -6.000000e+00
      vertex 1.200000e+03 1.060000e+03 6.000000e+00
      vertex 1.200000e+03 1.060000e+03 -6.000000e+00
    endloop
  endfacet
  facet normal 0.000000e+00 0.000000e+00 -1.000000e+00
    outer loop
      vertex -1.200000e+03 9.800000e+02 -6.000000e+00
      vertex -1.200000e+03 1.060000e+03 -6.000000e+00
      vertex 1.200000e+03 1.060000e+03 -6.000000e+00
    endloop
  endfacet
  facet normal 0.000000e+00 0.000000e+00 -1.000000e+00
    outer loop
      vertex -1.200000e+03 9.800000e+02 -6.000000e+00
      vertex 1.200000e+03 1.060000e+03 -6.000000e+00
      vertex 1.200000e+03 9.800000e+02 -6.000000e+00
    endloop
  endfacet
  facet normal 0.000000e+00 0.000000e+00 1.000000e+00
    outer loop
      vertex -1.200000e+03 9.800000e+02 6.000000e+00
      vertex 1.200000e+03 9.800000e+02 6.000000e+00
      vertex 1.200000e+03 1.060000e+03 6.000000e+00
    endloop
  endfacet
  facet normal 0.000000e+00 0.000000e+00 1.000000e+00
    outer loop
      vertex -1.200000e+03 9.800000e+02 6.000000e+00
      vertex 1.200000e+03 1.060000e+03 6.000000e+00
      vertex -1.200000e+03 1.060000e+03 6.000000e+00
    endloop
  endfacet
  facet normal -1.000000e+00 0.000000e+00 0.000000e+00
    outer loop
      vertex -1.200000e+03 1.060000e+03 -6.000000e+00
      vertex -1.200000e+03 1.060000e+03 6.000000e+00
      vertex -1.200000e+03 1.140000e+03 6.000000e+00
    endloop
  endfacet
  facet normal -1.000000e+00 0.000000e+00 0.000000e+00
    outer loop
      vertex -1.200000e+03 1.060000e+03 -6.000000e+00
      vertex -1.200000e+03 1.140000e+03 6.000000e+00
      vertex -1.200000e+03 1.140000e+03 -6.000000e+00
    endloop
  endfacet
  facet normal 1.000000e+00 0.000000e+00 0.000000e+00
    outer loop
      vertex 1.200000e+03 1.060000e+03 -6.000000e+00
      vertex 1.200000e+03 1.140000e+03 -6.000000e+00
      vertex 1.200000e+03 1.140000e+03 6.000000e+00
    endloop
  endfacet
  facet normal 1.000000e+00 0.000000e+00 0.000000e+00
    outer loop
      vertex 1.200000e+03 1.060000e+03 -6.000000e+00
      vertex 1.200000e+03 1.140000e+03 6.000000e+00
      vertex 1.200000e+03 1.060000e+03 6.000000e+00
    endloop
  endfacet
  facet normal 0.000000e+00 -1.000000e+00 0.000000e+00
    outer loop
      vertex -1.200000e+03 1.060000e+03 -6.000000e+00
      vertex 1.200000e+03 1.060000e+03 -6.000000e+00
      vertex 1.200000e+03 1.060000e+03 6.000000e+00
    endloop
  endfacet
  facet normal 0.000000e+00 -1.000000e+00 0.000000e+00
    outer loop
      vertex -1.200000e+03 1.060000e+03 -6.000000e+00
      vertex 1.200000e+03 1.060000e+03 6.000000e+00
      vertex -1.200000e+03 1.060000e+03 6.000000e+00
    endloop
  endfacet
  facet normal 0.000000e+00 1.000000e+00 0.000000e+00
    outer loop
      vertex -1.200000e+03 1.140000e+03 -6.000000e+00
      vertex -1.200000e+03 1.140000e+03 6.000000e+00
      vertex 1.200000e+03 1.140000e+03 6.000000e+00
    endloop
  endfacet
  facet normal 0.000000e+00 1.000000e+00 0.000000e+00
    outer loop
      vertex -1.200000e+03 1.140000e+03 -6.000000e+00
      vertex 1.200000e+03 1.140000e+03 6.000000e+00
      vertex 1.200000e+03 1.140000e+03 -6.000000e+00
    endloop
  endfacet
  facet normal 0.000000e+00 0.000000e+00 -1.000000e+00
    outer loop
      vertex -1.200000e+03 1.060000e+03 -6.000000e+00
      vertex -1.200000e+03 1.140000e+03 -6.000000e+00
      vertex 1.200000e+03 1.140000e+03 -6.000000e+00
    endloop
  endfacet
  facet normal 0.000000e+00 0.000000e+00 -1.000000e+00
    outer loop
      vertex -1.200000e+03 1.060000e+03 -6.000000e+00
      vertex 1.200000e+03 1.140000e+03 -6.000000e+00
      vertex 1.200000e+03 1.060000e+03 -6.000000e+00
    endloop
  endfacet
  facet normal 0.000000e+00 0.000000e+00 1.000000e+00
    outer loop
      vertex -1.200000e+03 1.060000e+03 6.000000e+00
      vertex 1.200000e+03 1.060000e+03 6.000000e+00
      vertex 1.200000e+03 1.140000e+03 6.000000e+00
    endloop
  endfacet
  facet normal 0.000000e+00 0.000000e+00 1.000000e+00
    outer loop
      vertex -1.200000e+03 1.060000e+03 6.000000e+00
      vertex 1.200000e+03 1.140000e+03 6.000000e+00
      vertex -1.200000e+03 1.140000e+03 6.000000e+00
    endloop
  endfacet
  facet normal -1.000000e+00 0.000000e+00 0.000000e+00
    outer loop
      vertex -1.200000e+03 1.140000e+03 -6.000000e+00
      vertex -1.200000e+03 1.140000e+03 6.000000e+00
      vertex -1.200000e+03 1.220000e+03 6.000000e+00
    endloop
  endfacet
  facet normal -1.000000e+00 0.000000e+00 0.000000e+00
    outer loop
      vertex -1.200000e+03 1.140000e+03 -6.000000e+00
      vertex -1.200000e+03 1.220000e+03 6.000000e+00
      vertex -1.200000e+03 1.220000e+03 -6.000000e+00
    endloop
  endfacet
  facet normal 1.000000e+00 0.000000e+00 0.000000e+00
    outer loop
      vertex 1.200000e+03 1.140000e+03 -6.000000e+00
      vertex 1.200000e+03 1.220000e+03 -6.000000e+00
      vertex 1.200000e+03 1.220000e+03 6.000000e+00
    endloop
  endfacet
  facet normal 1.000000e+00 0.000000e+00 0.000000e+00
    outer loop
      vertex 1.200000e+03 1.140000e+03 -6.000000e+00
      vertex 1.200000e+03 1.220000e+03 6.000000e+00
      vertex 1.200000e+03 1.140000e+03 6.000000e+00
    endloop
  endfacet
  facet normal 0.000000e+00 -1.000000e+00 0.000000e+00
    outer loop
      vertex -1.200000e+03 1.140000e+03 -6.000000e+00
      vertex 1.200000e+03 1.140000e+03 -6.000000e+00
      vertex 1.200000e+03 1.140000e+03 6.000000e+00
    endloop
  endfacet
  facet normal 0.000000e+00 -1.000000e+00 0.000000e+00
    outer loop
      vertex -1.200000e+03 1.140000e+03 -6.000000e+00
      vertex 1.200000e+03 1.140000e+03 6.000000e+00
      vertex -1.200000e+03 1.140000e+03 6.000000e+00
    endloop
  endfacet
  facet normal 0.000000e+00 1.000000e+00 0.000000e+00
    outer loop
      vertex -1.200000e+03 1.220000e+03 -6.000000e+00
      vertex -1.200000e+03 1.220000e+03 6.000000e+00
      vertex 1.200000e+03 1.220000e+03 6.000000e+00
    endloop
  endfacet
  facet normal 0.000000e+00 1.000000e+00 0.000000e+00
    outer loop
      vertex -1.200000e+03 1.220000e+03 -6.000000e+00
      vertex 1.200000e+03 1.220000e+03 6.000000e+00
      vertex 1.200000e+03 1.220000e+03 -6.000000e+00
    endloop
  endfacet
  facet normal 0.000000e+00 0.000000e+00 -1.000000e+00
    outer loop
      vertex -1.200000e+03 1.140000e+03 -6.000000e+00
      vertex -1.200000e+03 1.220000e+03 -6.000000e+00
      vertex 1.200000e+03 1.220000e+03 -6.000000e+00
    endloop
  endfacet
  facet normal 0.000000e+00 0.000000e+00 -1.000000e+00
    outer loop
      vertex -1.200000e+03 1.140000e+03 -6.000000e+00
      vertex 1.200000e+03 1.220000e+03 -6.000000e+00
      vertex 1.200000e+03 1.140000e+03 -6.000000e+00
    endloop
  endfacet
  facet normal 0.000000e+00 0.000000e+00 1.000000e+00
    outer loop
      vertex -1.200000e+03 1.140000e+03 6.000000e+00
      vertex 1.200000e+03 1.140000e+03 6.000000e+00
      vertex 1.200000e+03 1.220000e+03 6.000000e+00
    endloop
  endfacet
  facet normal 0.000000e+00 0.000000e+00 1.000000e+00
    outer loop
      vertex -1.200000e+03 1.140000e+03 6.000000e+00
      vertex 1.200000e+03 1.220000e+03 6.000000e+00
      vertex -1.200000e+03 1.220000e+03 6.000000e+00
    endloop
  endfacet
  facet normal -1.000000e+00 0.000000e+00 0.000000e+00
    outer loop
      vertex -1.200000e+03 1.220000e+03 -6.000000e+00
      vertex -1.200000e+03 1.220000e+03 6.000000e+00
      vertex -1.200000e+03 1.300000e+03 6.000000e+00
    endloop
  endfacet
  facet normal -1.000000e+00 0.000000e+00 0.000000e+00
    outer loop
      vertex -1.200000e+03 1.220000e+03 -6.000000e+00
      vertex -1.200000e+03 1.300000e+03 6.000000e+00
      vertex -1.200000e+03 1.300000e+03 -6.000000e+00
    endloop
  endfacet
  facet normal 1.000000e+00 0.000000e+00 0.000000e+00
    outer loop
      vertex 1.200000e+03 1.220000e+03 -6.000000e+00
      vertex 1.200000e+03 1.300000e+03 -6.000000e+00
      vertex 1.200000e+03 1.300000e+03 6.000000e+00
    endloop
  endfacet
  facet normal 1.000000e+00 0.000000e+00 0.000000e+00
    outer loop
      vertex 1.200000e+03 1.220000e+03 -6.000000e+00
      vertex 1.200000e+03 1.300000e+03 6.000000e+00
      vertex 1.200000e+03 1.220000e+03 6.000000e+00
    endloop
  endfacet
  facet normal 0.000000e+00 -1.000000e+00 0.000000e+00
    outer loop
      vertex -1.200000e+03 1.220000e+03 -6.000000e+00
      vertex 1.200000e+03 1.220000e+03 -6.000000e+00
      vertex 1.200000e+03 1.220000e+03 6.000000e+00
    endloop
  endfacet
  facet normal 0.000000e+00 -1.000000e+00 0.000000e+00
    outer loop
      vertex -1.200000e+03 1.220000e+03 -6.000000e+00
      vertex 1.200000e+03 1.220000e+03 6.000000e+00
      vertex -1.200000e+03 1.220000e+03 6.000000e+00
    endloop
  endfacet
  facet normal 0.000000e+00 1.000000e+00 0.000000e+00
    outer loop
      vertex -1.200000e+03 1.300000e+03 -6.000000e+00
      vertex -1.200000e+03 1.300000e+03 6.000000e+00
      vertex 1.200000e+03 1.300000e+03 6.000000e+00
    endloop
  endfacet
  facet normal 0.000000e+00 1.000000e+00 0.000000e+00
    outer loop
      vertex -1.200000e+03 1.300000e+03 -6.000000e+00
      vertex 1.200000e+03 1.300000e+03 6.000000e+00
      vertex 1.200000e+03 1.300000e+03 -6.000000e+00
    endloop
  endfacet
  facet normal 0.000000e+00 0.000000e+00 -1.000000e+00
    outer loop
      vertex -1.200000e+03 1.220000e+03 -6.000000e+00
      vertex -1.200000e+03 1.300000e+03 -6.000000e+00
      vertex 1.200000e+03 1.300000e+03 -6.000000e+00
    endloop
  endfacet
  facet normal 0.000000e+00 0.000000e+00 -1.000000e+00
    outer loop
      vertex -1.200000e+03 1.220000e+03 -6.000000e+00
      vertex 1.200000e+03 1.300000e+03 -6.000000e+00
      vertex 1.200000e+03 1.220000e+03 -6.000000e+00
    endloop
  endfacet
  facet normal 0.000000e+00 0.000000e+00 1.000000e+00
    outer loop
      vertex -1.200000e+03 1.220000e+03 6.000000e+00
      vertex 1.200000e+03 1.220000e+03 6.000000e+00
      vertex 1.200000e+03 1.300000e+03 6.000000e+00
    endloop
  endfacet
  facet normal 0.000000e+00 0.000000e+00 1.000000e+00
    outer loop
      vertex -1.200000e+03 1.220000e+03 6.000000e+00
      vertex 1.200000e+03 1.300000e+03 6.000000e+00
      vertex -1.200000e+03 1.300000e+03 6.000000e+00
    endloop
  endfacet
  facet normal -1.000000e+00 0.000000e+00 0.000000e+00
    outer loop
      vertex -1.200000e+03 1.300000e+03 -6.000000e+00
      vertex -1.200000e+03 1.300000e+03 6.000000e+00
      vertex -1.200000e+03 1.380000e+03 6.000000e+00
    endloop
  endfacet
  facet normal -1.000000e+00 0.000000e+00 0.000000e+00
    outer loop
      vertex -1.200000e+03 1.300000e+03 -6.000000e+00
      vertex -1.200000e+03 1.380000e+03 6.000000e+00
      vertex -1.200000e+03 1.380000e+03 -6.000000e+00
    endloop
  endfacet
  facet normal 1.000000e+00 0.000000e+00 0.000000e+00
    outer loop
      vertex 1.200000e+03 1.300000e+03 -6.000000e+00
      vertex 1.200000e+03 1.380000e+03 -6.000000e+00
      vertex 1.200000e+03 1.380000e+03 6.000000e+00
    endloop
  endfacet
  facet normal 1.000000e+00 0.000000e+00 0.000000e+00
    outer loop
      vertex 1.200000e+03 1.300000e+03 -6.000000e+00
      vertex 1.200000e+03 1.380000e+03 6.000000e+00
      vertex 1.200000e+03 1.300000e+03 6.000000e+00
    endloop
  endfacet
  facet normal 0.000000e+00 -1.000000e+00 0.000000e+00
    outer loop
      vertex -1.200000e+03 1.300000e+03 -6.000000e+00
      vertex 1.200000e+03 1.300000e+03 -6.000000e+00
      vertex 1.200000e+03 1.300000e+03 6.000000e+00
    endloop
  endfacet
  facet normal 0.000000e+00 -1.000000e+00 0.000000e+00
    outer loop
      vertex -1.200000e+03 1.300000e+03 -6.000000e+00
      vertex 1.200000e+03 1.300000e+03 6.000000e+00
      vertex -1.200000e+03 1.300000e+03 6.000000e+00
    endloop
  endfacet
  facet normal 0.000000e+00 1.000000e+00 0.000000e+00
    outer loop
      vertex -1.200000e+03 1.380000e+03 -6.000000e+00
      vertex -1.200000e+03 1.380000e+03 6.000000e+00
      vertex 1.200000e+03 1.380000e+03 6.000000e+00
    endloop
  endfacet
  facet normal 0.000000e+00 1.000000e+00 0.000000e+00
    outer loop
      vertex -1.200000e+03 1.380000e+03 -6.000000e+00
      vertex 1.200000e+03 1.380000e+03 6.000000e+00
      vertex 1.200000e+03 1.380000e+03 -6.000000e+00
    endloop
  endfacet
  facet normal 0.000000e+00 0.000000e+00 -1.000000e+00
    outer loop
      vertex -1.200000e+03 1.300000e+03 -6.000000e+00
      vertex -1.200000e+03 1.380000e+03 -6.000000e+00
      vertex 1.200000e+03 1.380000e+03 -6.000000e+00
    endloop
  endfacet
  facet normal 0.000000e+00 0.000000e+00 -1.000000e+00
    outer loop
      vertex -1.200000e+03 1.300000e+03 -6.000000e+00
      vertex 1.200000e+03 1.380000e+03 -6.000000e+00
      vertex 1.200000e+03 1.300000e+03 -6.000000e+00
    endloop
  endfacet
  facet normal 0.000000e+00 0.000000e+00 1.000000e+00
    outer loop
      vertex -1.200000e+03 1.300000e+03 6.000000e+00
      vertex 1.200000e+03 1.300000e+03 6.000000e+00
      vertex 1.200000e+03 1.380000e+03 6.000000e+00
    endloop
  endfacet
  facet normal 0.000000e+00 0.000000e+00 1.000000e+00
    outer loop
      vertex -1.200000e+03 1.300000e+03 6.000000e+00
      vertex 1.200000e+03 1.380000e+03 6.000000e+00
      vertex -1.200000e+03 1.380000e+03 6.000000e+00
    endloop
  endfacet
  facet normal -1.000000e+00 0.000000e+00 0.000000e+00
    outer loop
      vertex -1.200000e+03 1.380000e+03 -6.000000e+00
      vertex -1.200000e+03 1.380000e+03 6.000000e+00
      vertex -1.200000e+03 1.460000e+03 6.000000e+00
    endloop
  endfacet
  facet normal -1.000000e+00 0.000000e+00 0.000000e+00
    outer loop
      vertex -1.200000e+03 1.380000e+03 -6.000000e+00
      vertex -1.200000e+03 1.460000e+03 6.000000e+00
      vertex -1.200000e+03 1.460000e+03 -6.000000e+00
    endloop
  endfacet
  facet normal 1.000000e+00 0.000000e+00 0.000000e+00
    outer loop
      vertex 1.200000e+03 1.380000e+03 -6.000000e+00
      vertex 1.200000e+03 1.460000e+03 -6.000000e+00
      vertex 1.200000e+03 1.460000e+03 6.000000e+00
    endloop
  endfacet
  facet normal 1.000000e+00 0.000000e+00 0.000000e+00
    outer loop
      vertex 1.200000e+03 1.380000e+03 -6.000000e+00
      vertex 1.200000e+03 1.460000e+03 6.000000e+00
      vertex 1.200000e+03 1.380000e+03 6.000000e+00
    endloop
  endfacet
  facet normal 0.000000e+00 -1.000000e+00 0.000000e+00
    outer loop
      vertex -1.200000e+03 1.380000e+03 -6.000000e+00
      vertex 1.200000e+03 1.380000e+03 -6.000000e+00
      vertex 1.200000e+03 1.380000e+03 6.000000e+00
    endloop
  endfacet
  facet normal 0.000000e+00 -1.000000e+00 0.000000e+00
    outer loop
      vertex -1.200000e+03 1.380000e+03 -6.000000e+00
      vertex 1.200000e+03 1.380000e+03 6.000000e+00
      vertex -1.200000e+03 1.380000e+03 6.000000e+00
    endloop
  endfacet
  facet normal 0.000000e+00 1.000000e+00 0.000000e+00
    outer loop
      vertex -1.200000e+03 1.460000e+03 -6.000000e+00
      vertex -1.200000e+03 1.460000e+03 6.000000e+00
      vertex 1.200000e+03 1.460000e+03 6.000000e+00
    endloop
  endfacet
  facet normal 0.000000e+00 1.000000e+00 0.000000e+00
    outer loop
      vertex -1.200000e+03 1.460000e+03 -6.000000e+00
      vertex 1.200000e+03 1.460000e+03 6.000000e+00
      vertex 1.200000e+03 1.460000e+03 -6.000000e+00
    endloop
  endfacet
  facet normal 0.000000e+00 0.000000e+00 -1.000000e+00
    outer loop
      vertex -1.200000e+03 1.380000e+03 -6.000000e+00
      vertex -1.200000e+03 1.460000e+03 -6.000000e+00
      vertex 1.200000e+03 1.460000e+03 -6.000000e+00
    endloop
  endfacet
  facet normal 0.000000e+00 0.000000e+00 -1.000000e+00
    outer loop
      vertex -1.200000e+03 1.380000e+03 -6.000000e+00
      vertex 1.200000e+03 1.460000e+03 -6.000000e+00
      vertex 1.200000e+03 1.380000e+03 -6.000000e+00
    endloop
  endfacet
  facet normal 0.000000e+00 0.000000e+00 1.000000e+00
    outer loop
      vertex -1.200000e+03 1.380000e+03 6.000000e+00
      vertex 1.200000e+03 1.380000e+03 6.000000e+00
      vertex 1.200000e+03 1.460000e+03 6.000000e+00
    endloop
  endfacet
  facet normal 0.000000e+00 0.000000e+00 1.000000e+00
    outer loop
      vertex -1.200000e+03 1.380000e+03 6.000000e+00
      vertex 1.200000e+03 1.460000e+03 6.000000e+00
      vertex -1.200000e+03 1.460000e+03 6.000000e+00
    endloop
  endfacet
  facet normal -1.000000e+00 0.000000e+00 0.000000e+00
    outer loop
      vertex -1.200000e+03 1.460000e+03 -6.000000e+00
      vertex -1.200000e+03 1.460000e+03 6.000000e+00
      vertex -1.200000e+03 1.540000e+03 6.000000e+00
    endloop
  endfacet
  facet normal -1.000000e+00 0.000000e+00 0.000000e+00
    outer loop
      vertex -1.200000e+03 1.460000e+03 -6.000000e+00
      vertex -1.200000e+03 1.540000e+03 6.000000e+00
      vertex -1.200000e+03 1.540000e+03 -6.000000e+00
    endloop
  endfacet
  facet normal 1.000000e+00 0.000000e+00 0.000000e+00
    outer loop
      vertex 1.200000e+03 1.460000e+03 -6.000000e+00
      vertex 1.200000e+03 1.540000e+03 -6.000000e+00
      vertex 1.200000e+03 1.540000e+03 6.000000e+00
    endloop
  endfacet
  facet normal 1.000000e+00 0.000000e+00 0.000000e+00
    outer loop
      vertex 1.200000e+03 1.460000e+03 -6.000000e+00
      vertex 1.200000e+03 1.540000e+03 6.000000e+00
      vertex 1.200000e+03 1.460000e+03 6.000000e+00
    endloop
  endfacet
  facet normal 0.000000e+00 -1.000000e+00 0.000000e+00
    outer loop
      vertex -1.200000e+03 1.460000e+03 -6.000000e+00
      vertex 1.200000e+03 1.460000e+03 -6.000000e+00
      vertex 1.200000e+03 1.460000e+03 6.000000e+00
    endloop
  endfacet
  facet normal 0.000000e+00 -1.000000e+00 0.000000e+00
    outer loop
      vertex -1.200000e+03 1.460000e+03 -6.000000e+00
      vertex 1.200000e+03 1.460000e+03 6.000000e+00
      vertex -1.200000e+03 1.460000e+03 6.000000e+00
    endloop
  endfacet
  facet normal 0.000000e+00 1.000000e+00 0.000000e+00
    outer loop
      vertex -1.200000e+03 1.540000e+03 -6.000000e+00
      vertex -1.200000e+03 1.540000e+03 6.000000e+00
      vertex 1.200000e+03 1.540000e+03 6.000000e+00
    endloop
  endfacet
  facet normal 0.000000e+00 1.000000e+00 0.000000e+00
    outer loop
      vertex -1.200000e+03 1.540000e+03 -6.000000e+00
      vertex 1.200000e+03 1.540000e+03 6.000000e+00
      vertex 1.200000e+03 1.540000e+03 -6.000000e+00
    endloop
  endfacet
  facet normal 0.000000e+00 0.000000e+00 -1.000000e+00
    outer loop
      vertex -1.200000e+03 1.460000e+03 -6.000000e+00
      vertex -1.200000e+03 1.540000e+03 -6.000000e+00
      vertex 1.200000e+03 1.540000e+03 -6.000000e+00
    endloop
  endfacet
  facet normal 0.000000e+00 0.000000e+00 -1.000000e+00
    outer loop
      vertex -1.200000e+03 1.460000e+03 -6.000000e+00
      vertex 1.200000e+03 1.540000e+03 -6.000000e+00
      vertex 1.200000e+03 1.460000e+03 -6.000000e+00
    endloop
  endfacet
  facet normal 0.000000e+00 0.000000e+00 1.000000e+00
    outer loop
      vertex -1.200000e+03 1.460000e+03 6.000000e+00
      vertex 1.200000e+03 1.460000e+03 6.000000e+00
      vertex 1.200000e+03 1.540000e+03 6.000000e+00
    endloop
  endfacet
  facet normal 0.000000e+00 0.000000e+00 1.000000e+00
    outer loop
      vertex -1.200000e+03 1.460000e+03 6.000000e+00
      vertex 1.200000e+03 1.540000e+03 6.000000e+00
      vertex -1.200000e+03 1.540000e+03 6.000000e+00
    endloop
  endfacet
  facet normal -1.000000e+00 0.000000e+00 0.000000e+00
    outer loop
      vertex -1.200000e+03 1.540000e+03 -6.000000e+00
      vertex -1.200000e+03 1.540000e+03 6.000000e+00
      vertex -1.200000e+03 1.620000e+03 6.000000e+00
    endloop
  endfacet
  facet normal -1.000000e+00 0.000000e+00 0.000000e+00
    outer loop
      vertex -1.200000e+03 1.540000e+03 -6.000000e+00
      vertex -1.200000e+03 1.620000e+03 6.000000e+00
      vertex -1.200000e+03 1.620000e+03 -6.000000e+00
    endloop
  endfacet
  facet normal 1.000000e+00 0.000000e+00 0.000000e+00
    outer loop
      vertex 1.200000e+03 1.540000e+03 -6.000000e+00
      vertex 1.200000e+03 1.620000e+03 -6.000000e+00
      vertex 1.200000e+03 1.620000e+03 6.000000e+00
    endloop
  endfacet
  facet normal 1.000000e+00 0.000000e+00 0.000000e+00
    outer loop
      vertex 1.200000e+03 1.540000e+03 -6.000000e+00
      vertex 1.200000e+03 1.620000e+03 6.000000e+00
      vertex 1.200000e+03 1.540000e+03 6.000000e+00
    endloop
  endfacet
  facet normal 0.000000e+00 -1.000000e+00 0.000000e+00
    outer loop
      vertex -1.200000e+03 1.540000e+03 -6.000000e+00
      vertex 1.200000e+03 1.540000e+03 -6.000000e+00
      vertex 1.200000e+03 1.540000e+03 6.000000e+00
    endloop
  endfacet
  facet normal 0.000000e+00 -1.000000e+00 0.000000e+00
    outer loop
      vertex -1.200000e+03 1.540000e+03 -6.000000e+00
      vertex 1.200000e+03 1.540000e+03 6.000000e+00
      vertex -1.200000e+03 1.540000e+03 6.000000e+00
    endloop
  endfacet
  facet normal 0.000000e+00 1.000000e+00 0.000000e+00
    outer loop
      vertex -1.200000e+03 1.620000e+03 -6.000000e+00
      vertex -1.200000e+03 1.620000e+03 6.000000e+00
      vertex 1.200000e+03 1.620000e+03 6.000000e+00
    endloop
  endfacet
  facet normal 0.000000e+00 1.000000e+00 0.000000e+00
    outer loop
      vertex -1.200000e+03 1.620000e+03 -6.000000e+00
      vertex 1.200000e+03 1.620000e+03 6.000000e+00
      vertex 1.200000e+03 1.620000e+03 -6.000000e+00
    endloop
  endfacet
  facet normal 0.000000e+00 0.000000e+00 -1.000000e+00
    outer loop
      vertex -1.200000e+03 1.540000e+03 -6.000000e+00
      vertex -1.200000e+03 1.620000e+03 -6.000000e+00
      vertex 1.200000e+03 1.620000e+03 -6.000000e+00
    endloop
  endfacet
  facet normal 0.000000e+00 0.000000e+00 -1.000000e+00
    outer loop
      vertex -1.200000e+03 1.540000e+03 -6.000000e+00
      vertex 1.200000e+03 1.620000e+03 -6.000000e+00
      vertex 1.200000e+03 1.540000e+03 -6.000000e+00
    endloop
  endfacet
  facet normal 0.000000e+00 0.000000e+00 1.000000e+00
    outer loop
      vertex -1.200000e+03 1.540000e+03 6.000000e+00
      vertex 1.200000e+03 1.540000e+03 6.000000e+00
      vertex 1.200000e+03 1.620000e+03 6.000000e+00
    endloop
  endfacet
  facet normal 0.000000e+00 0.000000e+00 1.000000e+00
    outer loop
      vertex -1.200000e+03 1.540000e+03 6.000000e+00
      vertex 1.200000e+03 1.620000e+03 6.000000e+00
      vertex -1.200000e+03 1.620000e+03 6.000000e+00
    endloop
  endfacet
  facet normal -1.000000e+00 0.000000e+00 0.000000e+00
    outer loop
      vertex -1.200000e+03 1.620000e+03 -6.000000e+00
      vertex -1.200000e+03 1.620000e+03 6.000000e+00
      vertex -1.200000e+03 1.700000e+03 6.000000e+00
    endloop
  endfacet
  facet normal -1.000000e+00 0.000000e+00 0.000000e+00
    outer loop
      vertex -1.200000e+03 1.620000e+03 -6.000000e+00
      vertex -1.200000e+03 1.700000e+03 6.000000e+00
      vertex -1.200000e+03 1.700000e+03 -6.000000e+00
    endloop
  endfacet
  facet normal 1.000000e+00 0.000000e+00 0.000000e+00
    outer loop
      vertex 1.200000e+03 1.620000e+03 -6.000000e+00
      vertex 1.200000e+03 1.700000e+03 -6.000000e+00
      vertex 1.200000e+03 1.700000e+03 6.000000e+00
    endloop
  endfacet
  facet normal 1.000000e+00 0.000000e+00 0.000000e+00
    outer loop
      vertex 1.200000e+03 1.620000e+03 -6.000000e+00
      vertex 1.200000e+03 1.700000e+03 6.000000e+00
      vertex 1.200000e+03 1.620000e+03 6.000000e+00
    endloop
  endfacet
  facet normal 0.000000e+00 -1.000000e+00 0.000000e+00
    outer loop
      vertex -1.200000e+03 1.620000e+03 -6.000000e+00
      vertex 1.200000e+03 1.620000e+03 -6.000000e+00
      vertex 1.200000e+03 1.620000e+03 6.000000e+00
    endloop
  endfacet
  facet normal 0.000000e+00 -1.000000e+00 0.000000e+00
    outer loop
      vertex -1.200000e+03 1.620000e+03 -6.000000e+00
      vertex 1.200000e+03 1.620000e+03 6.000000e+00
      vertex -1.200000e+03 1.620000e+03 6.000000e+00
    endloop
  endfacet
  facet normal 0.000000e+00 1.000000e+00 0.000000e+00
    outer loop
      vertex -1.200000e+03 1.700000e+03 -6.000000e+00
      vertex -1.200000e+03 1.700000e+03 6.000000e+00
      vertex 1.200000e+03 1.700000e+03 6.000000e+00
    endloop
  endfacet
  facet normal 0.000000e+00 1.000000e+00 0.000000e+00
    outer loop
      vertex -1.200000e+03 1.700000e+03 -6.000000e+00
      vertex 1.200000e+03 1.700000e+03 6.000000e+00
      vertex 1.200000e+03 1.700000e+03 -6.000000e+00
    endloop
  endfacet
  facet normal 0.000000e+00 0.000000e+00 -1.000000e+00
    outer loop
      vertex -1.200000e+03 1.620000e+03 -6.000000e+00
      vertex -1.200000e+03 1.700000e+03 -6.000000e+00
      vertex 1.200000e+03 1.700000e+03 -6.000000e+00
    endloop
  endfacet
  facet normal 0.000000e+00 0.000000e+00 -1.000000e+00
    outer loop
      vertex -1.200000e+03 1.620000e+03 -6.000000e+00
      vertex 1.200000e+03 1.700000e+03 -6.000000e+00
      vertex 1.200000e+03 1.620000e+03 -6.000000e+00
    endloop
  endfacet
  facet normal 0.000000e+00 0.000000e+00 1.000000e+00
    outer loop
      vertex -1.200000e+03 1.620000e+03 6.000000e+00
      vertex 1.200000e+03 1.620000e+03 6.000000e+00
      vertex 1.200000e+03 1.700000e+03 6.000000e+00
    endloop
  endfacet
  facet normal 0.000000e+00 0.000000e+00 1.000000e+00
    outer loop
      vertex -1.200000e+03 1.620000e+03 6.000000e+00
      vertex 1.200000e+03 1.700000e+03 6.000000e+00
      vertex -1.200000e+03 1.700000e+03 6.000000e+00
    endloop
  endfacet
  facet normal -1.000000e+00 0.000000e+00 0.000000e+00
    outer loop
      vertex -1.200000e+03 1.700000e+03 -6.000000e+00
      vertex -1.200000e+03 1.700000e+03 6.000000e+00
      vertex -1.200000e+03 1.780000e+03 6.000000e+00
    endloop
  endfacet
  facet normal -1.000000e+00 0.000000e+00 0.000000e+00
    outer loop
      vertex -1.200000e+03 1.700000e+03 -6.000000e+00
      vertex -1.200000e+03 1.780000e+03 6.000000e+00
      vertex -1.200000e+03 1.780000e+03 -6.000000e+00
    endloop
  endfacet
  facet normal 1.000000e+00 0.000000e+00 0.000000e+00
    outer loop
      vertex 1.200000e+03 1.700000e+03 -6.000000e+00
      vertex 1.200000e+03 1.780000e+03 -6.000000e+00
      vertex 1.200000e+03 1.780000e+03 6.000000e+00
    endloop
  endfacet
  facet normal 1.000000e+00 0.000000e+00 0.000000e+00
    outer loop
      vertex 1.200000e+03 1.700000e+03 -6.000000e+00
      vertex 1.200000e+03 1.780000e+03 6.000000e+00
      vertex 1.200000e+03 1.700000e+03 6.000000e+00
    endloop
  endfacet
  facet normal 0.000000e+00 -1.000000e+00 0.000000e+00
    outer loop
      vertex -1.200000e+03 1.700000e+03 -6.000000e+00
      vertex 1.200000e+03 1.700000e+03 -6.000000e+00
      vertex 1.200000e+03 1.700000e+03 6.000000e+00
    endloop
  endfacet
  facet normal 0.000000e+00 -1.000000e+00 0.000000e+00
    outer loop
      vertex -1.200000e+03 1.700000e+03 -6.000000e+00
      vertex 1.200000e+03 1.700000e+03 6.000000e+00
      vertex -1.200000e+03 1.700000e+03 6.000000e+00
    endloop
  endfacet
  facet normal 0.000000e+00 1.000000e+00 0.000000e+00
    outer loop
      vertex -1.200000e+03 1.780000e+03 -6.000000e+00
      vertex -1.200000e+03 1.780000e+03 6.000000e+00
      vertex 1.200000e+03 1.780000e+03 6.000000e+00
    endloop
  endfacet
  facet normal 0.000000e+00 1.000000e+00 0.000000e+00
    outer loop
      vertex -1.200000e+03 1.780000e+03 -6.000000e+00
      vertex 1.200000e+03 1.780000e+03 6.000000e+00
      vertex 1.200000e+03 1.780000e+03 -6.000000e+00
    endloop
  endfacet
  facet normal 0.000000e+00 0.000000e+00 -1.000000e+00
    outer loop
      vertex -1.200000e+03 1.700000e+03 -6.000000e+00
      vertex -1.200000e+03 1.780000e+03 -6.000000e+00
      vertex 1.200000e+03 1.780000e+03 -6.000000e+00
    endloop
  endfacet
  facet normal 0.000000e+00 0.000000e+00 -1.000000e+00
    outer loop
      vertex -1.200000e+03 1.700000e+03 -6.000000e+00
      vertex 1.200000e+03 1.780000e+03 -6.000000e+00
      vertex 1.200000e+03 1.700000e+03 -6.000000e+00
    endloop
  endfacet
  facet normal 0.000000e+00 0.000000e+00 1.000000e+00
    outer loop
      vertex -1.200000e+03 1.700000e+03 6.000000e+00
      vertex 1.200000e+03 1.700000e+03 6.000000e+00
      vertex 1.200000e+03 1.780000e+03 6.000000e+00
    endloop
  endfacet
  facet normal 0.000000e+00 0.000000e+00 1.000000e+00
    outer loop
      vertex -1.200000e+03 1.700000e+03 6.000000e+00
      vertex 1.200000e+03 1.780000e+03 6.000000e+00
      vertex -1.200000e+03 1.780000e+03 6.000000e+00
    endloop
  endfacet
  facet normal -1.000000e+00 0.000000e+00 0.000000e+00
    outer loop
      vertex -1.200000e+03 1.780000e+03 -6.000000e+00
      vertex -1.200000e+03 1.780000e+03 6.000000e+00
      vertex -1.200000e+03 1.860000e+03 6.000000e+00
    endloop
  endfacet
  facet normal -1.000000e+00 0.000000e+00 0.000000e+00
    outer loop
      vertex -1.200000e+03 1.780000e+03 -6.000000e+00
      vertex -1.200000e+03 1.860000e+03 6.000000e+00
      vertex -1.200000e+03 1.860000e+03 -6.000000e+00
    endloop
  endfacet
  facet normal 1.000000e+00 0.000000e+00 0.000000e+00
    outer loop
      vertex 1.200000e+03 1.780000e+03 -6.000000e+00
      vertex 1.200000e+03 1.860000e+03 -6.000000e+00
      vertex 1.200000e+03 1.860000e+03 6.000000e+00
    endloop
  endfacet
  facet normal 1.000000e+00 0.000000e+00 0.000000e+00
    outer loop
      vertex 1.200000e+03 1.780000e+03 -6.000000e+00
      vertex 1.200000e+03 1.860000e+03 6.000000e+00
      vertex 1.200000e+03 1.780000e+03 6.000000e+00
    endloop
  endfacet
  facet normal 0.000000e+00 -1.000000e+00 0.000000e+00
    outer loop
      vertex -1.200000e+03 1.780000e+03 -6.000000e+00
      vertex 1.200000e+03 1.780000e+03 -6.000000e+00
      vertex 1.200000e+03 1.780000e+03 6.000000e+00
    endloop
  endfacet
  facet normal 0.000000e+00 -1.000000e+00 0.000000e+00
    outer loop
      vertex -1.200000e+03 1.780000e+03 -6.000000e+00
      vertex 1.200000e+03 1.780000e+03 6.000000e+00
      vertex -1.200000e+03 1.780000e+03 6.000000e+00
    endloop
  endfacet
  facet normal 0.000000e+00 1.000000e+00 0.000000e+00
    outer loop
      vertex -1.200000e+03 1.860000e+03 -6.000000e+00
      vertex -1.200000e+03 1.860000e+03 6.000000e+00
      vertex 1.200000e+03 1.860000e+03 6.000000e+00
    endloop
  endfacet
  facet normal 0.000000e+00 1.000000e+00 0.000000e+00
    outer loop
      vertex -1.200000e+03 1.860000e+03 -6.000000e+00
      vertex 1.200000e+03 1.860000e+03 6.000000e+00
      vertex 1.200000e+03 1.860000e+03 -6.000000e+00
    endloop
  endfacet
  facet normal 0.000000e+00 0.000000e+00 -1.000000e+00
    outer loop
      vertex -1.200000e+03 1.780000e+03 -6.000000e+00
      vertex -1.200000e+03 1.860000e+03 -6.000000e+00
      vertex 1.200000e+03 1.860000e+03 -6.000000e+00
    endloop
  endfacet
  facet normal 0.000000e+00 0.000000e+00 -1.000000e+00
    outer loop
      vertex -1.200000e+03 1.780000e+03 -6.000000e+00
      vertex 1.200000e+03 1.860000e+03 -6.000000e+00
      vertex 1.200000e+03 1.780000e+03 -6.000000e+00
    endloop
  endfacet
  facet normal 0.000000e+00 0.000000e+00 1.000000e+00
    outer loop
      vertex -1.200000e+03 1.780000e+03 6.000000e+00
      vertex 1.200000e+03 1.780000e+03 6.000000e+00
      vertex 1.200000e+03 1.860000e+03 6.000000e+00
    endloop
  endfacet
  facet normal 0.000000e+00 0.000000e+00 1.000000e+00
    outer loop
      vertex -1.200000e+03 1.780000e+03 6.000000e+00
      vertex 1.200000e+03 1.860000e+03 6.000000e+00
      vertex -1.200000e+03 1.860000e+03 6.000000e+00
    endloop
  endfacet
  facet normal -1.000000e+00 0.000000e+00 0.000000e+00
    outer loop
      vertex -1.200000e+03 1.860000e+03 -6.000000e+00
      vertex -1.200000e+03 1.860000e+03 6.000000e+00
      vertex -1.200000e+03 1.940000e+03 6.000000e+00
    endloop
  endfacet
  facet normal -1.000000e+00 0.000000e+00 0.000000e+00
    outer loop
      vertex -1.200000e+03 1.860000e+03 -6.000000e+00
      vertex -1.200000e+03 1.940000e+03 6.000000e+00
      vertex -1.200000e+03 1.940000e+03 -6.000000e+00
    endloop
  endfacet
  facet normal 1.000000e+00 0.000000e+00 0.000000e+00
    outer loop
      vertex 1.200000e+03 1.860000e+03 -6.000000e+00
      vertex 1.200000e+03 1.940000e+03 -6.000000e+00
      vertex 1.200000e+03 1.940000e+03 6.000000e+00
    endloop
  endfacet
  facet normal 1.000000e+00 0.000000e+00 0.000000e+00
    outer loop
      vertex 1.200000e+03 1.860000e+03 -6.000000e+00
      vertex 1.200000e+03 1.940000e+03 6.000000e+00
      vertex 1.200000e+03 1.860000e+03 6.000000e+00
    endloop
  endfacet
  facet normal 0.000000e+00 -1.000000e+00 0.000000e+00
    outer loop
      vertex -1.200000e+03 1.860000e+03 -6.000000e+00
      vertex 1.200000e+03 1.860000e+03 -6.000000e+00
      vertex 1.200000e+03 1.860000e+03 6.000000e+00
    endloop
  endfacet
  facet normal 0.000000e+00 -1.000000e+00 0.000000e+00
    outer loop
      vertex -1.200000e+03 1.860000e+03 -6.000000e+00
      vertex 1.200000e+03 1.860000e+03 6.000000e+00
      vertex -1.200000e+03 1.860000e+03 6.000000e+00
    endloop
  endfacet
  facet normal 0.000000e+00 1.000000e+00 0.000000e+00
    outer loop
      vertex -1.200000e+03 1.940000e+03 -6.000000e+00
      vertex -1.200000e+03 1.940000e+03 6.000000e+00
      vertex 1.200000e+03 1.940000e+03 6.000000e+00
    endloop
  endfacet
  facet normal 0.000000e+00 1.000000e+00 0.000000e+00
    outer loop
      vertex -1.200000e+03 1.940000e+03 -6.000000e+00
      vertex 1.200000e+03 1.940000e+03 6.000000e+00
      vertex 1.200000e+03 1.940000e+03 -6.000000e+00
    endloop
  endfacet
  facet normal 0.000000e+00 0.000000e+00 -1.000000e+00
    outer loop
      vertex -1.200000e+03 1.860000e+03 -6.000000e+00
      vertex -1.200000e+03 1.940000e+03 -6.000000e+00
      vertex 1.200000e+03 1.940000e+03 -6.000000e+00
    endloop
  endfacet
  facet normal 0.000000e+00 0.000000e+00 -1.000000e+00
    outer loop
      vertex -1.200000e+03 1.860000e+03 -6.000000e+00
      vertex 1.200000e+03 1.940000e+03 -6.000000e+00
      vertex 1.200000e+03 1.860000e+03 -6.000000e+00
    endloop
  endfacet
  facet normal 0.000000e+00 0.000000e+00 1.000000e+00
    outer loop
      vertex -1.200000e+03 1.860000e+03 6.000000e+00
      vertex 1.200000e+03 1.860000e+03 6.000000e+00
      vertex 1.200000e+03 1.940000e+03 6.000000e+00
    endloop
  endfacet
  facet normal 0.000000e+00 0.000000e+00 1.000000e+00
    outer loop
      vertex -1.200000e+03 1.860000e+03 6.000000e+00
      vertex 1.200000e+03 1.940000e+03 6.000000e+00
      vertex -1.200000e+03 1.940000e+03 6.000000e+00
    endloop
  endfacet
  facet normal -1.000000e+00 0.000000e+00 0.000000e+00
    outer loop
      vertex -1.200000e+03 1.940000e+03 -6.000000e+00
      vertex -1.200000e+03 1.940000e+03 6.000000e+00
      vertex -1.200000e+03 2.020000e+03 6.000000e+00
    endloop
  endfacet
  facet normal -1.000000e+00 0.000000e+00 0.000000e+00
    outer loop
      vertex -1.200000e+03 1.940000e+03 -6.000000e+00
      vertex -1.200000e+03 2.020000e+03 6.000000e+00
      vertex -1.200000e+03 2.020000e+03 -6.000000e+00
    endloop
  endfacet
  facet normal 1.000000e+00 0.000000e+00 0.000000e+00
    outer loop
      vertex 1.200000e+03 1.940000e+03 -6.000000e+00
      vertex 1.200000e+03 2.020000e+03 -6.000000e+00
      vertex 1.200000e+03 2.020000e+03 6.000000e+00
    endloop
  endfacet
  facet normal 1.000000e+00 0.000000e+00 0.000000e+00
    outer loop
      vertex 1.200000e+03 1.940000e+03 -6.000000e+00
      vertex 1.200000e+03 2.020000e+03 6.000000e+00
      vertex 1.200000e+03 1.940000e+03 6.000000e+00
    endloop
  endfacet
  facet normal 0.000000e+00 -1.000000e+00 0.000000e+00
    outer loop
      vertex -1.200000e+03 1.940000e+03 -6.000000e+00
      vertex 1.200000e+03 1.940000e+03 -6.000000e+00
      vertex 1.200000e+03 1.940000e+03 6.000000e+00
    endloop
  endfacet
  facet normal 0.000000e+00 -1.000000e+00 0.000000e+00
    outer loop
      vertex -1.200000e+03 1.940000e+03 -6.000000e+00
      vertex 1.200000e+03 1.940000e+03 6.000000e+00
      vertex -1.200000e+03 1.940000e+03 6.000000e+00
    endloop
  endfacet
  facet normal 0.000000e+00 1.000000e+00 0.000000e+00
    outer loop
      vertex -1.200000e+03 2.020000e+03 -6.000000e+00
      vertex -1.200000e+03 2.020000e+03 6.000000e+00
      vertex 1.200000e+03 2.020000e+03 6.000000e+00
    endloop
  endfacet
  facet normal 0.000000e+00 1.000000e+00 0.000000e+00
    outer loop
      vertex -1.200000e+03 2.020000e+03 -6.000000e+00
      vertex 1.200000e+03 2.020000e+03 6.000000e+00
      vertex 1.200000e+03 2.020000e+03 -6.000000e+00
    endloop
  endfacet
  facet normal 0.000000e+00 0.000000e+00 -1.000000e+00
    outer loop
      vertex -1.200000e+03 1.940000e+03 -6.000000e+00
      vertex -1.200000e+03 2.020000e+03 -6.000000e+00
      vertex 1.200000e+03 2.020000e+03 -6.000000e+00
    endloop
  endfacet
  facet normal 0.000000e+00 0.000000e+00 -1.000000e+00
    outer loop
      vertex -1.200000e+03 1.940000e+03 -6.000000e+00
      vertex 1.200000e+03 2.020000e+03 -6.000000e+00
      vertex 1.200000e+03 1.940000e+03 -6.000000e+00
    endloop
  endfacet
  facet normal 0.000000e+00 0.000000e+00 1.000000e+00
    outer loop
      vertex -1.200000e+03 1.940000e+03 6.000000e+00
      vertex 1.200000e+03 1.940000e+03 6.000000e+00
      vertex 1.200000e+03 2.020000e+03 6.000000e+00
    endloop
  endfacet
  facet normal 0.000000e+00 0.000000e+00 1.000000e+00
    outer loop
      vertex -1.200000e+03 1.940000e+03 6.000000e+00
      vertex 1.200000e+03 2.020000e+03 6.000000e+00
      vertex -1.200000e+03 2.020000e+03 6.000000e+00
    endloop
  endfacet
  facet normal -1.000000e+00 0.000000e+00 0.000000e+00
    outer loop
      vertex -1.200000e+03 2.020000e+03 -6.000000e+00
      vertex -1.200000e+03 2.020000e+03 6.000000e+00
      vertex -1.200000e+03 2.100000e+03 6.000000e+00
    endloop
  endfacet
  facet normal -1.000000e+00 0.000000e+00 0.000000e+00
    outer loop
      vertex -1.200000e+03 2.020000e+03 -6.000000e+00
      vertex -1.200000e+03 2.100000e+03 6.000000e+00
      vertex -1.200000e+03 2.100000e+03 -6.000000e+00
    endloop
  endfacet
  facet normal 1.000000e+00 0.000000e+00 0.000000e+00
    outer loop
      vertex 1.200000e+03 2.020000e+03 -6.000000e+00
      vertex 1.200000e+03 2.100000e+03 -6.000000e+00
      vertex 1.200000e+03 2.100000e+03 6.000000e+00
    endloop
  endfacet
  facet normal 1.000000e+00 0.000000e+00 0.000000e+00
    outer loop
      vertex 1.200000e+03 2.020000e+03 -6.000000e+00
      vertex 1.200000e+03 2.100000e+03 6.000000e+00
      vertex 1.200000e+03 2.020000e+03 6.000000e+00
    endloop
  endfacet
  facet normal 0.000000e+00 -1.000000e+00 0.000000e+00
    outer loop
      vertex -1.200000e+03 2.020000e+03 -6.000000e+00
      vertex 1.200000e+03 2.020000e+03 -6.000000e+00
      vertex 1.200000e+03 2.020000e+03 6.000000e+00
    endloop
  endfacet
  facet normal 0.000000e+00 -1.000000e+00 0.000000e+00
    outer loop
      vertex -1.200000e+03 2.020000e+03 -6.000000e+00
      vertex 1.200000e+03 2.020000e+03 6.000000e+00
      vertex -1.200000e+03 2.020000e+03 6.000000e+00
    endloop
  endfacet
  facet normal 0.000000e+00 1.000000e+00 0.000000e+00
    outer loop
      vertex -1.200000e+03 2.100000e+03 -6.000000e+00
      vertex -1.200000e+03 2.100000e+03 6.000000e+00
      vertex 1.200000e+03 2.100000e+03 6.000000e+00
    endloop
  endfacet
  facet normal 0.000000e+00 1.000000e+00 0.000000e+00
    outer loop
      vertex -1.200000e+03 2.100000e+03 -6.000000e+00
      vertex 1.200000e+03 2.100000e+03 6.000000e+00
      vertex 1.200000e+03 2.100000e+03 -6.000000e+00
    endloop
  endfacet
  facet normal 0.000000e+00 0.000000e+00 -1.000000e+00
    outer loop
      vertex -1.200000e+03 2.020000e+03 -6.000000e+00
      vertex -1.200000e+03 2.100000e+03 -6.000000e+00
      vertex 1.200000e+03 2.100000e+03 -6.000000e+00
    endloop
  endfacet
  facet normal 0.000000e+00 0.000000e+00 -1.000000e+00
    outer loop
      vertex -1.200000e+03 2.020000e+03 -6.000000e+00
      vertex 1.200000e+03 2.100000e+03 -6.000000e+00
      vertex 1.200000e+03 2.020000e+03 -6.000000e+00
    endloop
  endfacet
  facet normal 0.000000e+00 0.000000e+00 1.000000e+00
    outer loop
      vertex -1.200000e+03 2.020000e+03 6.000000e+00
      vertex 1.200000e+03 2.020000e+03 6.000000e+00
      vertex 1.200000e+03 2.100000e+03 6.000000e+00
    endloop
  endfacet
  facet normal 0.000000e+00 0.000000e+00 1.000000e+00
    outer loop
      vertex -1.200000e+03 2.020000e+03 6.000000e+00
      vertex 1.200000e+03 2.100000e+03 6.000000e+00
      vertex -1.200000e+03 2.100000e+03 6.000000e+00
    endloop
  endfacet
  facet normal -1.000000e+00 0.000000e+00 0.000000e+00
    outer loop
      vertex -1.200000e+03 2.100000e+03 -6.000000e+00
      vertex -1.200000e+03 2.100000e+03 6.000000e+00
      vertex -1.200000e+03 2.180000e+03 6.000000e+00
    endloop
  endfacet
  facet normal -1.000000e+00 0.000000e+00 0.000000e+00
    outer loop
      vertex -1.200000e+03 2.100000e+03 -6.000000e+00
      vertex -1.200000e+03 2.180000e+03 6.000000e+00
      vertex -1.200000e+03 2.180000e+03 -6.000000e+00
    endloop
  endfacet
  facet normal 1.000000e+00 0.000000e+00 0.000000e+00
    outer loop
      vertex 1.200000e+03 2.100000e+03 -6.000000e+00
      vertex 1.200000e+03 2.180000e+03 -6.000000e+00
      vertex 1.200000e+03 2.180000e+03 6.000000e+00
    endloop
  endfacet
  facet normal 1.000000e+00 0.000000e+00 0.000000e+00
    outer loop
      vertex 1.200000e+03 2.100000e+03 -6.000000e+00
      vertex 1.200000e+03 2.180000e+03 6.000000e+00
      vertex 1.200000e+03 2.100000e+03 6.000000e+00
    endloop
  endfacet
  facet normal 0.000000e+00 -1.000000e+00 0.000000e+00
    outer loop
      vertex -1.200000e+03 2.100000e+03 -6.000000e+00
      vertex 1.200000e+03 2.100000e+03 -6.000000e+00
      vertex 1.200000e+03 2.100000e+03 6.000000e+00
    endloop
  endfacet
  facet normal 0.000000e+00 -1.000000e+00 0.000000e+00
    outer loop
      vertex -1.200000e+03 2.100000e+03 -6.000000e+00
      vertex 1.200000e+03 2.100000e+03 6.000000e+00
      vertex -1.200000e+03 2.100000e+03 6.000000e+00
    endloop
  endfacet
  facet normal 0.000000e+00 1.000000e+00 0.000000e+00
    outer loop
      vertex -1.200000e+03 2.180000e+03 -6.000000e+00
      vertex -1.200000e+03 2.180000e+03 6.000000e+00
      vertex 1.200000e+03 2.180000e+03 6.000000e+00
    endloop
  endfacet
  facet normal 0.000000e+00 1.000000e+00 0.000000e+00
    outer loop
      vertex -1.200000e+03 2.180000e+03 -6.000000e+00
      vertex 1.200000e+03 2.180000e+03 6.000000e+00
      vertex 1.200000e+03 2.180000e+03 -6.000000e+00
    endloop
  endfacet
  facet normal 0.000000e+00 0.000000e+00 -1.000000e+00
    outer loop
      vertex -1.200000e+03 2.100000e+03 -6.000000e+00
      vertex -1.200000e+03 2.180000e+03 -6.000000e+00
      vertex 1.200000e+03 2.180000e+03 -6.000000e+00
    endloop
  endfacet
  facet normal 0.000000e+00 0.000000e+00 -1.000000e+00
    outer loop
      vertex -1.200000e+03 2.100000e+03 -6.000000e+00
      vertex 1.200000e+03 2.180000e+03 -6.000000e+00
      vertex 1.200000e+03 2.100000e+03 -6.000000e+00
    endloop
  endfacet
  facet normal 0.000000e+00 0.000000e+00 1.000000e+00
    outer loop
      vertex -1.200000e+03 2.100000e+03 6.000000e+00
      vertex 1.200000e+03 2.100000e+03 6.000000e+00
      vertex 1.200000e+03 2.180000e+03 6.000000e+00
    endloop
  endfacet
  facet normal 0.000000e+00 0.000000e+00 1.000000e+00
    outer loop
      vertex -1.200000e+03 2.100000e+03 6.000000e+00
      vertex 1.200000e+03 2.180000e+03 6.000000e+00
      vertex -1.200000e+03 2.180000e+03 6.000000e+00
    endloop
  endfacet
  facet normal -1.000000e+00 0.000000e+00 0.000000e+00
    outer loop
      vertex -1.200000e+03 2.180000e+03 -6.000000e+00
      vertex -1.200000e+03 2.180000e+03 6.000000e+00
      vertex -1.200000e+03 2.260000e+03 6.000000e+00
    endloop
  endfacet
  facet normal -1.000000e+00 0.000000e+00 0.000000e+00
    outer loop
      vertex -1.200000e+03 2.180000e+03 -6.000000e+00
      vertex -1.200000e+03 2.260000e+03 6.000000e+00
      vertex -1.200000e+03 2.260000e+03 -6.000000e+00
    endloop
  endfacet
  facet normal 1.000000e+00 0.000000e+00 0.000000e+00
    outer loop
      vertex 1.200000e+03 2.180000e+03 -6.000000e+00
      vertex 1.200000e+03 2.260000e+03 -6.000000e+00
      vertex 1.200000e+03 2.260000e+03 6.000000e+00
    endloop
  endfacet
  facet normal 1.000000e+00 0.000000e+00 0.000000e+00
    outer loop
      vertex 1.200000e+03 2.180000e+03 -6.000000e+00
      vertex 1.200000e+03 2.260000e+03 6.000000e+00
      vertex 1.200000e+03 2.180000e+03 6.000000e+00
    endloop
  endfacet
  facet normal 0.000000e+00 -1.000000e+00 0.000000e+00
    outer loop
      vertex -1.200000e+03 2.180000e+03 -6.000000e+00
      vertex 1.200000e+03 2.180000e+03 -6.000000e+00
      vertex 1.200000e+03 2.180000e+03 6.000000e+00
    endloop
  endfacet
  facet normal 0.000000e+00 -1.000000e+00 0.000000e+00
    outer loop
      vertex -1.200000e+03 2.180000e+03 -6.000000e+00
      vertex 1.200000e+03 2.180000e+03 6.000000e+00
      vertex -1.200000e+03 2.180000e+03 6.000000e+00
    endloop
  endfacet
  facet normal 0.000000e+00 1.000000e+00 0.000000e+00
    outer loop
      vertex -1.200000e+03 2.260000e+03 -6.000000e+00
      vertex -1.200000e+03 2.260000e+03 6.000000e+00
      vertex 1.200000e+03 2.260000e+03 6.000000e+00
    endloop
  endfacet
  facet normal 0.000000e+00 1.000000e+00 0.000000e+00
    outer loop
      vertex -1.200000e+03 2.260000e+03 -6.000000e+00
      vertex 1.200000e+03 2.260000e+03 6.000000e+00
      vertex 1.200000e+03 2.260000e+03 -6.000000e+00
    endloop
  endfacet
  facet normal 0.000000e+00 0.000000e+00 -1.000000e+00
    outer loop
      vertex -1.200000e+03 2.180000e+03 -6.000000e+00
      vertex -1.200000e+03 2.260000e+03 -6.000000e+00
      vertex 1.200000e+03 2.260000e+03 -6.000000e+00
    endloop
  endfacet
  facet normal 0.000000e+00 0.000000e+00 -1.000000e+00
    outer loop
      vertex -1.200000e+03 2.180000e+03 -6.000000e+00
      vertex 1.200000e+03 2.260000e+03 -6.000000e+00
      vertex 1.200000e+03 2.180000e+03 -6.000000e+00
    endloop
  endfacet
  facet normal 0.000000e+00 0.000000e+00 1.000000e+00
    outer loop
      vertex -1.200000e+03 2.180000e+03 6.000000e+00
      vertex 1.200000e+03 2.180000e+03 6.000000e+00
      vertex 1.200000e+03 2.260000e+03 6.000000e+00
    endloop
  endfacet
  facet normal 0.000000e+00 0.000000e+00 1.000000e+00
    outer loop
      vertex -1.200000e+03 2.180000e+03 6.000000e+00
      vertex 1.200000e+03 2.260000e+03 6.000000e+00
      vertex -1.200000e+03 2.260000e+03 6.000000e+00
    endloop
  endfacet
  facet normal -1.000000e+00 0.000000e+00 0.000000e+00
    outer loop
      vertex -1.200000e+03 2.260000e+03 -6.000000e+00
      vertex -1.200000e+03 2.260000e+03 6.000000e+00
      vertex -1.200000e+03 2.340000e+03 6.000000e+00
    endloop
  endfacet
  facet normal -1.000000e+00 0.000000e+00 0.000000e+00
    outer loop
      vertex -1.200000e+03 2.260000e+03 -6.000000e+00
      vertex -1.200000e+03 2.340000e+03 6.000000e+00
      vertex -1.200000e+03 2.340000e+03 -6.000000e+00
    endloop
  endfacet
  facet normal 1.000000e+00 0.000000e+00 0.000000e+00
    outer loop
      vertex 1.200000e+03 2.260000e+03 -6.000000e+00
      vertex 1.200000e+03 2.340000e+03 -6.000000e+00
      vertex 1.200000e+03 2.340000e+03 6.000000e+00
    endloop
  endfacet
  facet normal 1.000000e+00 0.000000e+00 0.000000e+00
    outer loop
      vertex 1.200000e+03 2.260000e+03 -6.000000e+00
      vertex 1.200000e+03 2.340000e+03 6.000000e+00
      vertex 1.200000e+03 2.260000e+03 6.000000e+00
    endloop
  endfacet
  facet normal 0.000000e+00 -1.000000e+00 0.000000e+00
    outer loop
      vertex -1.200000e+03 2.260000e+03 -6.000000e+00
      vertex 1.200000e+03 2.260000e+03 -6.000000e+00
      vertex 1.200000e+03 2.260000e+03 6.000000e+00
    endloop
  endfacet
  facet normal 0.000000e+00 -1.000000e+00 0.000000e+00
    outer loop
      vertex -1.200000e+03 2.260000e+03 -6.000000e+00
      vertex 1.200000e+03 2.260000e+03 6.000000e+00
      vertex -1.200000e+03 2.260000e+03 6.000000e+00
    endloop
  endfacet
  facet normal 0.000000e+00 1.000000e+00 0.000000e+00
    outer loop
      vertex -1.200000e+03 2.340000e+03 -6.000000e+00
      vertex -1.200000e+03 2.340000e+03 6.000000e+00
      vertex 1.200000e+03 2.340000e+03 6.000000e+00
    endloop
  endfacet
  facet normal 0.000000e+00 1.000000e+00 0.000000e+00
    outer loop
      vertex -1.200000e+03 2.340000e+03 -6.000000e+00
      vertex 1.200000e+03 2.340000e+03 6.000000e+00
      vertex 1.200000e+03 2.340000e+03 -6.000000e+00
    endloop
  endfacet
  facet normal 0.000000e+00 0.000000e+00 -1.000000e+00
    outer loop
      vertex -1.200000e+03 2.260000e+03 -6.000000e+00
      vertex -1.200000e+03 2.340000e+03 -6.000000e+00
      vertex 1.200000e+03 2.340000e+03 -6.000000e+00
    endloop
  endfacet
  facet normal 0.000000e+00 0.000000e+00 -1.000000e+00
    outer loop
      vertex -1.200000e+03 2.260000e+03 -6.000000e+00
      vertex 1.200000e+03 2.340000e+03 -6.000000e+00
      vertex 1.200000e+03 2.260000e+03 -6.000000e+00
    endloop
  endfacet
  facet normal 0.000000e+00 0.000000e+00 1.000000e+00
    outer loop
      vertex -1.200000e+03 2.260000e+03 6.000000e+00
      vertex 1.200000e+03 2.260000e+03 6.000000e+00
      vertex 1.200000e+03 2.340000e+03 6.000000e+00
    endloop
  endfacet
  facet normal 0.000000e+00 0.000000e+00 1.000000e+00
    outer loop
      vertex -1.200000e+03 2.260000e+03 6.000000e+00
      vertex 1.200000e+03 2.340000e+03 6.000000e+00
      vertex -1.200000e+03 2.340000e+03 6.000000e+00
    endloop
  endfacet
  facet normal -1.000000e+00 0.000000e+00 0.000000e+00
    outer loop
      vertex -1.200000e+03 2.360000e+03 -6.000000e+00
      vertex -1.200000e+03 2.360000e+03 6.000000e+00
      vertex -1.200000e+03 2.400000e+03 6.000000e+00
    endloop
  endfacet
  facet normal -1.000000e+00 0.000000e+00 0.000000e+00
    outer loop
      vertex -1.200000e+03 2.360000e+03 -6.000000e+00
      vertex -1.200000e+03 2.400000e+03 6.000000e+00
      vertex -1.200000e+03 2.400000e+03 -6.000000e+00
    endloop
  endfacet
  facet normal 1.000000e+00 0.000000e+00 0.000000e+00
    outer loop
      vertex 1.200000e+03 2.360000e+03 -6.000000e+00
      vertex 1.200000e+03 2.400000e+03 -6.000000e+00
      vertex 1.200000e+03 2.400000e+03 6.000000e+00
    endloop
  endfacet
  facet normal 1.000000e+00 0.000000e+00 0.000000e+00
    outer loop
      vertex 1.200000e+03 2.360000e+03 -6.000000e+00
      vertex 1.200000e+03 2.400000e+03 6.000000e+00
      vertex 1.200000e+03 2.360000e+03 6.000000e+00
    endloop
  endfacet
  facet normal 0.000000e+00 -1.000000e+00 0.000000e+00
    outer loop
      vertex -1.200000e+03 2.360000e+03 -6.000000e+00
      vertex 1.200000e+03 2.360000e+03 -6.000000e+00
      vertex 1.200000e+03 2.360000e+03 6.000000e+00
    endloop
  endfacet
  facet normal 0.000000e+00 -1.000000e+00 0.000000e+00
    outer loop
      vertex -1.200000e+03 2.360000e+03 -6.000000e+00
      vertex 1.200000e+03 2.360000e+03 6.000000e+00
      vertex -1.200000e+03 2.360000e+03 6.000000e+00
    endloop
  endfacet
  facet normal 0.000000e+00 1.000000e+00 0.000000e+00
    outer loop
      vertex -1.200000e+03 2.400000e+03 -6.000000e+00
      vertex -1.200000e+03 2.400000e+03 6.000000e+00
      vertex 1.200000e+03 2.400000e+03 6.000000e+00
    endloop
  endfacet
  facet normal 0.000000e+00 1.000000e+00 0.000000e+00
    outer loop
      vertex -1.200000e+03 2.400000e+03 -6.000000e+00
      vertex 1.200000e+03 2.400000e+03 6.000000e+00
      vertex 1.200000e+03 2.400000e+03 -6.000000e+00
    endloop
  endfacet
  facet normal 0.000000e+00 0.000000e+00 -1.000000e+00
    outer loop
      vertex -1.200000e+03 2.360000e+03 -6.000000e+00
      vertex -1.200000e+03 2.400000e+03 -6.000000e+00
      vertex 1.200000e+03 2.400000e+03 -6.000000e+00
    endloop
  endfacet
  facet normal 0.000000e+00 0.000000e+00 -1.000000e+00
    outer loop
      vertex -1.200000e+03 2.360000e+03 -6.000000e+00
      vertex 1.200000e+03 2.400000e+03 -6.000000e+00
      vertex 1.200000e+03 2.360000e+03 -6.000000e+00
    endloop
  endfacet
  facet normal 0.000000e+00 0.000000e+00 1.000000e+00
    outer loop
      vertex -1.200000e+03 2.360000e+03 6.000000e+00
      vertex 1.200000e+03 2.360000e+03 6.000000e+00
      vertex 1.200000e+03 2.400000e+03 6.000000e+00
    endloop
  endfacet
  facet normal 0.000000e+00 0.000000e+00 1.000000e+00
    outer loop
      vertex -1.200000e+03 2.360000e+03 6.000000e+00
      vertex 1.200000e+03 2.400000e+03 6.000000e+00
      vertex -1.200000e+03 2.400000e+03 6.000000e+00
    endloop
  endfacet
endsolid warehouse_rollup_shutter
